if (_typeface_js && _typeface_js.loadFace) _typeface_js.loadFace({"glyphs":{"S":{"x_min":87,"x_max":683,"ha":767,"o":"m 119 -131 l 87 -140 q 95 -74 91 -112 q 109 87 109 44 q 111 172 109 108 q 115 277 113 237 q 115 306 115 300 l 146 298 q 148 238 146 277 q 155 176 151 200 q 242 66 184 108 q 370 25 300 25 q 511 73 454 25 q 568 199 568 122 q 487 358 568 290 q 389 426 460 380 q 186 601 234 527 q 145 749 145 666 q 210 912 145 844 q 431 994 289 994 q 544 985 491 994 q 619 969 566 983 q 630 1018 623 986 q 644 1081 637 1049 l 675 1086 q 651 883 660 981 q 643 705 643 784 l 611 719 q 609 774 611 754 q 605 825 608 794 q 544 905 591 868 q 420 950 487 950 q 291 904 338 950 q 251 811 251 865 q 341 677 251 743 q 451 605 374 654 q 639 441 592 516 q 683 280 683 372 q 583 57 683 140 q 341 -22 488 -22 q 234 -12 291 -22 q 150 13 177 -2 l 119 -131 "},"/":{"x_min":4.5625,"x_max":675.390625,"ha":681,"o":"m 118 0 l 4 -8 q 99 146 22 15 q 240 391 203 324 q 344 576 292 483 q 472 795 424 711 q 567 974 565 957 l 675 974 q 540 768 646 942 q 387 511 451 622 q 244 248 332 415 q 118 0 157 82 "},"y":{"x_min":-48,"x_max":996,"ha":908,"o":"m 398 305 l 398 350 l 398 368 q 393 441 398 400 q 243 679 384 473 q 54 929 103 884 q 13 939 43 934 q -42 948 -16 944 l -48 978 q 193 972 0 972 q 311 973 257 972 q 385 977 365 975 l 378 948 q 321 940 375 948 q 258 929 287 936 q 354 772 294 863 q 454 618 404 693 q 525 508 515 525 q 653 712 596 619 q 765 929 765 895 l 657 948 l 653 978 q 714 973 671 975 q 828 972 757 972 q 903 972 864 972 q 996 977 943 973 l 991 948 q 939 939 955 943 q 903 930 923 936 q 800 814 883 924 q 650 601 718 704 q 561 452 571 481 q 557 409 558 438 q 556 353 556 380 l 556 301 q 557 160 556 255 q 562 42 558 66 q 646 30 604 37 q 697 23 687 24 l 700 -6 q 610 -1 676 -3 q 452 0 545 0 l 261 -5 l 268 23 q 336 31 309 27 q 391 43 364 36 q 396 177 395 56 q 398 305 398 298 "},"Ž":{"x_min":37,"x_max":937,"ha":997,"o":"m 905 306 l 937 315 q 885 15 910 163 q 861 -160 861 -132 l 829 -150 l 835 -16 q 684 -4 823 -9 q 416 0 546 0 l 37 -8 q 231 245 67 23 q 530 659 374 440 q 708 915 687 877 q 409 897 602 915 q 188 855 216 880 q 164 776 182 840 q 138 694 145 712 l 106 690 q 138 909 125 775 q 151 1106 151 1044 l 183 1099 l 187 969 q 348 962 205 967 q 538 957 491 957 q 742 960 560 957 q 936 964 924 964 q 747 710 905 926 q 460 316 583 486 q 272 50 303 98 q 596 65 446 50 q 846 126 798 86 q 868 184 853 134 q 905 306 884 234 m 670 1274 l 695 1240 q 580 1130 689 1235 q 520 1071 537 1089 q 444 1137 488 1096 q 330 1240 387 1189 l 356 1274 q 435 1228 363 1268 q 523 1181 507 1187 q 600 1226 545 1190 q 670 1274 655 1263 "},"Á":{"x_min":-76,"x_max":1051,"ha":989,"o":"m 585 -6 l 592 23 q 683 31 672 30 q 733 42 717 39 q 659 257 695 149 q 587 449 602 422 q 420 442 537 449 q 266 430 304 436 q 236 328 261 417 q 169 42 180 127 q 217 33 180 40 q 289 23 254 27 l 294 -5 l 85 0 l -76 -6 l -71 23 q 47 42 -12 28 q 154 299 68 78 q 305 695 226 485 q 393 930 362 847 q 340 940 380 934 q 283 948 299 947 l 281 978 l 462 972 q 560 973 495 972 q 699 977 624 974 l 695 948 q 651 943 674 945 q 590 930 628 940 q 648 750 605 875 q 735 505 669 690 q 820 280 783 377 q 924 43 881 126 q 986 31 957 36 q 1046 23 1014 27 l 1051 -5 q 977 -2 1045 -4 q 820 0 909 0 q 702 -3 799 0 q 585 -6 605 -6 m 577 491 q 503 703 531 621 q 436 907 454 848 q 350 673 379 753 q 286 496 293 517 l 577 491 m 689 1286 l 742 1179 q 584 1129 720 1180 q 431 1066 467 1084 l 414 1111 q 539 1187 424 1112 q 689 1286 646 1257 "},"":{"x_min":87,"x_max":682,"ha":767,"o":"m 372 -21 l 303 -105 q 394 -149 362 -122 q 426 -217 426 -176 q 336 -328 426 -288 q 165 -362 259 -362 l 178 -318 q 282 -295 247 -318 q 318 -234 318 -272 q 292 -175 318 -201 q 209 -134 266 -150 l 302 -21 q 218 -11 258 -21 q 149 13 178 -2 l 118 -131 l 87 -140 q 94 -74 90 -112 q 108 87 108 44 q 110 172 108 108 q 114 277 112 237 q 114 306 114 300 l 145 298 q 147 238 145 277 q 154 176 150 200 q 241 66 183 108 q 369 25 299 25 q 510 73 453 25 q 567 199 567 122 q 486 358 567 290 q 388 426 459 380 q 185 601 233 527 q 144 749 144 666 q 209 912 144 844 q 430 994 288 994 q 543 985 490 994 q 618 969 565 983 q 629 1018 622 986 q 643 1081 636 1049 l 674 1086 q 650 883 659 981 q 642 705 642 784 l 610 719 q 608 774 610 754 q 604 825 607 794 q 543 905 590 868 q 419 950 486 950 q 290 904 337 950 q 250 811 250 865 q 340 677 250 743 q 450 605 373 654 q 638 441 591 516 q 682 280 682 372 q 593 63 682 147 q 372 -21 504 -21 "},"g":{"x_min":78,"x_max":1208.546875,"ha":1257,"o":"m 1075 232 l 1075 187 q 1075 101 1075 161 q 1075 23 1075 41 q 905 -8 1015 5 q 720 -22 795 -22 q 547 -10 626 -22 q 353 44 432 5 q 150 220 222 109 q 78 462 78 330 q 141 713 78 599 q 297 881 198 814 q 488 968 387 942 q 705 994 589 994 q 885 983 790 994 q 1016 959 980 973 l 1041 1089 l 1073 1096 q 1061 910 1068 1059 q 1054 667 1054 761 l 1022 683 q 1018 737 1022 711 q 1006 810 1015 763 q 898 893 963 862 q 645 945 794 945 q 355 829 467 945 q 243 544 243 714 q 376 201 243 358 q 736 28 523 28 q 825 34 780 28 q 912 64 871 41 q 917 201 917 96 l 917 275 l 917 291 q 911 386 917 356 q 832 392 868 388 q 771 401 797 395 l 762 430 l 990 427 l 1018 427 l 1046 427 l 1072 427 l 1096 427 l 1115 427 l 1132 427 q 1208 430 1197 427 l 1201 401 q 1134 394 1165 397 q 1080 386 1102 391 q 1076 320 1077 372 q 1075 232 1075 269 "},"²":{"x_min":47,"x_max":503.953125,"ha":569,"o":"m 474 343 l 448 348 l 442 408 l 47 408 q 132 482 83 437 q 216 559 174 520 q 335 702 302 638 q 363 809 363 755 q 323 909 363 871 q 230 948 284 948 q 182 942 207 948 q 148 928 157 936 l 127 813 l 99 807 q 112 939 108 889 q 116 1038 116 990 l 141 1031 l 148 981 q 198 989 166 985 q 263 994 230 994 q 424 953 369 994 q 480 845 480 912 q 442 720 480 781 q 316 582 405 659 q 177 478 252 528 l 252 476 q 374 483 322 476 q 451 505 427 491 l 476 582 l 503 585 q 482 467 491 538 q 474 343 474 397 "},"–":{"x_min":0,"x_max":694.453125,"ha":694,"o":"m 11 556 l 694 556 l 683 467 q 577 470 644 468 q 429 473 509 473 q 200 468 309 473 q 0 452 91 464 l 11 556 "},"ë":{"x_min":66,"x_max":789.609375,"ha":885,"o":"m 226 476 l 226 540 q 223 766 226 634 q 216 929 220 897 q 172 935 209 930 q 71 948 135 940 l 66 977 l 191 972 l 313 972 l 342 972 l 384 972 q 606 974 516 972 q 721 981 696 976 l 732 1047 l 764 1053 q 748 913 759 1027 q 737 764 737 799 l 706 774 l 706 874 q 581 917 689 901 q 393 933 472 933 q 388 769 392 926 q 384 563 384 612 l 384 536 q 564 541 485 536 q 671 558 644 547 q 685 617 681 586 l 715 620 l 678 361 l 652 372 l 654 465 q 552 488 624 480 q 384 496 479 496 l 384 468 q 386 224 384 375 q 393 40 389 74 q 595 50 509 40 q 727 87 681 60 q 741 140 734 106 q 757 209 749 173 l 789 218 q 761 60 779 177 q 744 -102 744 -56 l 715 -96 l 715 -12 q 519 -4 692 -8 q 277 0 345 0 l 66 -5 l 72 24 q 141 30 95 24 q 216 43 187 36 q 223 200 220 60 q 226 476 226 340 m 207 1137 l 274 1246 l 381 1173 l 311 1066 l 207 1137 m 504 1139 l 572 1246 l 678 1173 l 607 1066 l 504 1139 "},"ƒ":{"x_min":18,"x_max":662.21875,"ha":617,"o":"m 198 -222 l 124 -256 q 137 -27 129 -211 q 150 260 146 156 q 154 421 154 364 q 18 410 84 421 l 28 463 l 154 463 q 248 890 154 766 q 480 994 327 994 q 549 989 516 994 q 602 979 581 984 l 630 1097 l 662 1103 q 639 932 647 1032 q 632 733 632 833 l 600 741 q 596 811 600 772 q 591 865 593 851 q 543 927 577 903 q 472 951 508 951 q 347 847 383 951 q 303 608 319 768 q 290 463 296 535 q 403 469 323 463 q 516 481 482 475 l 499 421 l 285 421 q 231 8 282 401 q 198 -222 209 -158 "},"Î":{"x_min":66,"x_max":544,"ha":611,"o":"m 384 569 l 384 483 q 385 197 384 333 q 390 42 386 62 q 445 33 400 39 q 537 23 489 27 l 544 -6 q 446 -1 518 -3 q 282 0 373 0 q 195 -1 254 0 q 66 -5 135 -2 l 71 24 q 136 30 92 24 q 219 43 181 36 q 224 286 223 83 q 226 495 226 489 l 226 577 l 226 603 l 226 639 l 226 677 l 226 713 l 226 746 l 226 775 l 226 800 l 226 822 l 226 840 l 226 855 q 219 929 226 911 q 160 937 212 930 q 73 948 109 943 l 66 978 q 156 973 88 975 q 329 972 224 972 q 456 973 391 972 q 543 977 521 975 l 536 948 l 390 929 q 385 817 386 911 q 384 569 384 724 m 148 1071 l 121 1103 q 213 1191 139 1120 q 298 1274 287 1261 q 403 1179 370 1208 q 488 1105 471 1119 l 462 1071 l 295 1164 q 219 1119 271 1153 q 148 1071 166 1085 "},"e":{"x_min":66,"x_max":789.609375,"ha":885,"o":"m 226 476 l 226 540 q 223 766 226 634 q 216 929 220 897 q 172 935 209 930 q 71 948 135 940 l 66 977 l 191 972 l 313 972 l 342 972 l 384 972 q 606 974 516 972 q 721 981 696 976 l 732 1047 l 764 1053 q 748 913 759 1027 q 737 764 737 799 l 706 774 l 706 874 q 581 917 689 901 q 393 933 472 933 q 388 769 392 926 q 384 563 384 612 l 384 536 q 564 541 485 536 q 671 558 644 547 q 685 617 681 586 l 715 620 l 678 361 l 652 372 l 654 465 q 552 488 624 480 q 384 496 479 496 l 384 468 q 386 224 384 375 q 393 40 389 74 q 595 50 509 40 q 727 87 681 60 q 741 140 734 106 q 757 209 749 173 l 789 218 q 761 60 779 177 q 744 -102 744 -56 l 715 -96 l 715 -12 q 519 -4 692 -8 q 277 0 345 0 l 66 -5 l 72 24 q 141 30 95 24 q 216 43 187 36 q 223 200 220 60 q 226 476 226 340 "},"Ã":{"x_min":-76,"x_max":1051,"ha":989,"o":"m 585 -6 l 592 23 q 683 31 672 30 q 733 42 717 39 q 659 257 695 149 q 587 449 602 422 q 420 442 537 449 q 266 430 304 436 q 236 328 261 417 q 169 42 180 127 q 217 33 180 40 q 289 23 254 27 l 294 -5 l 85 0 l -76 -6 l -71 23 q 47 42 -12 28 q 154 299 68 78 q 305 695 226 485 q 393 930 362 847 q 340 940 380 934 q 283 948 299 947 l 281 978 l 462 972 q 560 973 495 972 q 699 977 624 974 l 695 948 q 651 943 674 945 q 590 930 628 940 q 648 750 605 875 q 735 505 669 690 q 820 280 783 377 q 924 43 881 126 q 986 31 957 36 q 1046 23 1014 27 l 1051 -5 q 977 -2 1045 -4 q 820 0 909 0 q 702 -3 799 0 q 585 -6 605 -6 m 577 491 q 503 703 531 621 q 436 907 454 848 q 350 673 379 753 q 286 496 293 517 l 577 491 m 677 1211 l 716 1202 q 674 1129 703 1165 q 608 1085 638 1085 q 560 1093 588 1085 q 500 1116 533 1102 q 439 1138 467 1129 q 394 1147 410 1147 q 344 1133 363 1147 q 312 1097 326 1120 l 273 1105 q 314 1181 285 1141 q 380 1233 352 1233 q 433 1220 401 1233 q 478 1202 464 1208 q 544 1179 512 1190 q 602 1168 577 1168 q 647 1177 631 1168 q 677 1211 663 1187 "},"J":{"x_min":29.5625,"x_max":543.4375,"ha":582,"o":"m 384 571 l 384 497 l 384 176 q 372 24 384 79 q 318 -103 361 -30 q 243 -201 289 -155 q 79 -340 188 -258 l 50 -330 q 158 -184 122 -253 q 198 -81 182 -139 q 222 106 214 -23 q 231 473 231 236 l 231 569 q 228 777 231 678 q 218 929 226 876 q 128 940 200 932 q 35 949 55 949 l 29 978 q 151 975 57 978 q 303 972 246 973 q 408 973 344 972 q 543 978 471 975 l 539 949 l 390 929 q 386 776 388 904 q 384 571 384 648 "},"»":{"x_min":109,"x_max":640,"ha":750,"o":"m 359 620 l 380 720 q 464 646 391 707 q 640 500 552 572 q 458 354 524 407 q 378 285 392 301 l 364 335 q 443 410 388 356 q 526 491 489 455 q 435 565 488 524 q 359 620 382 606 m 109 620 l 129 720 q 214 646 141 707 q 390 500 302 572 q 208 354 274 407 q 128 285 142 301 l 114 335 q 193 410 138 356 q 276 491 239 455 q 185 565 238 524 q 109 620 132 606 "},"©":{"x_min":76,"x_max":1132,"ha":1208,"o":"m 604 994 q 979 846 827 994 q 1132 486 1132 698 q 980 125 1132 272 q 604 -22 829 -22 q 228 125 380 -22 q 76 486 76 273 q 227 846 76 699 q 604 994 378 994 m 592 927 q 295 805 415 927 q 175 497 175 684 q 306 177 175 309 q 615 45 437 45 q 910 167 788 45 q 1033 474 1033 289 q 901 794 1033 662 q 592 927 770 927 m 834 299 l 820 247 q 732 208 780 221 q 624 196 684 196 q 538 204 581 196 q 463 229 495 212 q 343 331 387 266 q 300 466 300 395 q 332 604 300 540 q 430 715 365 669 q 530 761 479 748 q 635 775 581 775 q 715 767 677 775 q 771 749 753 759 q 779 768 773 753 q 788 797 785 783 l 812 801 l 795 557 l 770 561 l 764 654 q 710 705 748 683 q 615 732 666 732 q 472 666 520 732 q 429 517 429 608 q 499 323 429 399 q 671 247 570 247 q 834 299 756 247 "},"˘":{"x_min":436.5,"x_max":835.109375,"ha":1274,"o":"m 811 1255 l 835 1233 q 735 1135 794 1168 q 626 1108 685 1108 q 501 1150 555 1108 q 436 1233 458 1185 l 462 1255 q 531 1209 485 1228 q 637 1190 578 1190 q 751 1213 700 1190 q 811 1255 792 1230 "},"ò":{"x_min":76,"x_max":1239,"ha":1315,"o":"m 638 -22 q 420 5 512 -22 q 209 133 298 43 q 105 288 135 208 q 76 469 76 368 q 237 834 76 684 q 685 994 409 994 q 894 969 805 994 q 1070 881 983 945 q 1194 730 1150 823 q 1239 537 1239 637 q 1069 132 1239 286 q 638 -22 899 -22 m 707 35 q 963 152 857 35 q 1070 435 1070 269 q 940 796 1070 652 q 634 941 811 941 q 363 842 475 941 q 236 527 236 728 q 369 187 236 334 q 707 35 508 35 m 409 1179 l 464 1286 q 613 1188 496 1264 q 739 1111 730 1112 l 722 1066 q 569 1127 689 1082 q 409 1179 429 1180 "},"«":{"x_min":109,"x_max":639.5625,"ha":750,"o":"m 389 385 l 368 285 q 238 398 354 299 q 109 505 134 485 q 290 651 224 598 q 370 720 356 704 l 384 670 q 304 595 350 639 q 224 514 244 535 q 314 441 251 488 q 389 385 377 394 m 639 385 l 618 285 q 488 398 604 299 q 359 505 384 485 q 540 651 474 598 q 620 720 606 704 l 634 670 q 554 595 600 639 q 474 514 494 535 q 564 441 501 488 q 639 385 627 394 "},"D":{"x_min":66,"x_max":1235,"ha":1306,"o":"m 226 473 l 226 583 q 223 799 226 693 q 216 929 221 905 q 133 943 174 937 q 68 949 92 949 l 66 978 q 152 973 81 975 q 295 972 222 972 q 432 975 311 972 q 615 978 553 978 q 840 961 740 978 q 1007 913 940 945 q 1182 763 1123 858 q 1235 576 1235 678 q 1053 175 1235 334 q 471 -6 846 -6 l 66 -6 l 71 20 q 143 26 98 20 q 216 39 189 32 q 223 202 220 53 q 226 473 226 350 m 384 516 l 384 462 q 386 256 384 400 q 393 76 389 112 q 472 55 432 60 q 544 51 511 51 q 904 165 758 51 q 1064 502 1064 290 q 1032 675 1064 600 q 912 824 994 762 q 733 901 843 875 q 515 927 624 927 q 448 924 478 927 q 393 918 418 922 q 388 744 392 911 q 384 516 384 576 "},"∙":{"x_min":139.046875,"x_max":306.96875,"ha":444,"o":"m 306 452 l 143 421 l 139 570 l 300 601 l 306 452 "},"ł":{"x_min":70.828125,"x_max":811.109375,"ha":822,"o":"m 75 948 l 70 978 q 179 975 87 978 q 333 972 272 973 q 468 973 397 972 q 562 978 540 975 l 555 948 l 395 929 q 390 784 391 902 q 389 600 389 666 l 389 558 q 483 594 420 568 q 573 633 530 613 l 566 555 q 477 533 533 551 q 389 504 420 516 l 389 449 q 390 200 389 342 q 395 44 391 57 q 611 66 525 44 q 727 116 698 89 q 757 200 743 148 q 777 272 772 252 l 811 278 q 770 72 790 194 q 737 -178 751 -50 l 705 -171 q 709 -82 705 -154 q 712 -8 712 -11 q 530 -4 690 -6 q 284 0 370 -1 q 174 -2 259 0 q 70 -5 90 -5 l 76 24 q 148 29 100 24 q 224 43 196 35 q 229 250 228 80 q 231 430 231 420 l 231 462 l 81 411 l 86 473 q 162 491 129 483 q 231 512 194 499 l 231 590 l 231 626 l 231 665 l 231 704 l 231 738 l 231 769 l 231 797 l 231 819 l 231 838 l 231 854 q 224 929 231 914 q 150 940 207 932 q 75 948 94 948 "},"ÿ":{"x_min":-48,"x_max":996,"ha":908,"o":"m 398 305 l 398 350 l 398 368 q 393 441 398 400 q 243 679 384 473 q 54 929 103 884 q 13 939 43 934 q -42 948 -16 944 l -48 978 q 193 972 0 972 q 311 973 257 972 q 385 977 365 975 l 378 948 q 321 940 375 948 q 258 929 287 936 q 354 772 294 863 q 454 618 404 693 q 525 508 515 525 q 653 712 596 619 q 765 929 765 895 l 657 948 l 653 978 q 714 973 671 975 q 828 972 757 972 q 903 972 864 972 q 996 977 943 973 l 991 948 q 939 939 955 943 q 903 930 923 936 q 800 814 883 924 q 650 601 718 704 q 561 452 571 481 q 557 409 558 438 q 556 353 556 380 l 556 301 q 557 160 556 255 q 562 42 558 66 q 646 30 604 37 q 697 23 687 24 l 700 -6 q 610 -1 676 -3 q 452 0 545 0 l 261 -5 l 268 23 q 336 31 309 27 q 391 43 364 36 q 396 177 395 56 q 398 305 398 298 m 261 1137 l 328 1246 l 435 1173 l 365 1066 l 261 1137 m 558 1139 l 626 1246 l 732 1173 l 661 1066 l 558 1139 "},"Ł":{"x_min":70.828125,"x_max":811.109375,"ha":822,"o":"m 75 948 l 70 978 q 179 975 87 978 q 333 972 272 973 q 468 973 397 972 q 562 978 540 975 l 555 948 l 395 929 q 390 784 391 902 q 389 600 389 666 l 389 558 q 483 594 420 568 q 573 633 530 613 l 566 555 q 477 533 533 551 q 389 504 420 516 l 389 449 q 390 200 389 342 q 395 44 391 57 q 611 66 525 44 q 727 116 698 89 q 757 200 743 148 q 777 272 772 252 l 811 278 q 770 72 790 194 q 737 -178 751 -50 l 705 -171 q 709 -82 705 -154 q 712 -8 712 -11 q 530 -4 690 -6 q 284 0 370 -1 q 174 -2 259 0 q 70 -5 90 -5 l 76 24 q 148 29 100 24 q 224 43 196 35 q 229 250 228 80 q 231 430 231 420 l 231 462 l 81 411 l 86 473 q 162 491 129 483 q 231 512 194 499 l 231 590 l 231 626 l 231 665 l 231 704 l 231 738 l 231 769 l 231 797 l 231 819 l 231 838 l 231 854 q 224 929 231 914 q 150 940 207 932 q 75 948 94 948 "},"í":{"x_min":66,"x_max":553.71875,"ha":611,"o":"m 384 569 l 384 483 q 385 197 384 333 q 390 42 386 62 q 445 33 400 39 q 537 23 489 27 l 544 -6 q 446 -1 518 -3 q 282 0 373 0 q 195 -1 254 0 q 66 -5 135 -2 l 71 24 q 136 30 92 24 q 219 43 181 36 q 224 286 223 83 q 226 495 226 489 l 226 577 l 226 603 l 226 639 l 226 677 l 226 713 l 226 746 l 226 775 l 226 800 l 226 822 l 226 840 l 226 855 q 219 929 226 911 q 160 937 212 930 q 73 948 109 943 l 66 978 q 156 973 88 975 q 329 972 224 972 q 456 973 391 972 q 543 977 521 975 l 536 948 l 390 929 q 385 817 386 911 q 384 569 384 724 m 500 1286 l 553 1179 q 395 1129 531 1180 q 242 1066 278 1084 l 225 1111 q 350 1187 235 1112 q 500 1286 457 1257 "},"ˆ":{"x_min":452.78125,"x_max":819.453125,"ha":1274,"o":"m 479 1071 l 452 1103 q 544 1191 470 1120 q 629 1274 618 1261 q 734 1179 701 1208 q 819 1105 802 1119 l 793 1071 l 626 1164 q 550 1119 602 1153 q 479 1071 497 1085 "},"w":{"x_min":-37,"x_max":1511.609375,"ha":1464,"o":"m -31 948 l -37 978 q 39 975 -25 978 q 167 972 104 972 q 306 973 256 972 q 390 978 356 975 l 383 948 l 257 929 q 308 729 267 887 q 394 411 350 572 q 450 219 437 250 q 612 634 526 403 q 701 893 687 836 q 627 905 687 895 q 565 915 596 909 l 558 944 q 659 941 585 944 q 756 939 733 939 q 851 940 801 939 q 954 944 900 941 l 950 915 q 884 905 912 909 q 839 893 857 901 q 907 706 872 800 q 1014 415 959 563 q 1092 211 1069 267 q 1151 394 1129 322 q 1240 697 1205 569 q 1286 929 1286 869 q 1225 938 1271 931 q 1156 948 1179 944 l 1149 977 q 1331 972 1207 972 q 1417 973 1372 972 q 1511 978 1461 975 l 1507 948 q 1460 940 1486 946 q 1418 929 1435 934 q 1311 661 1401 911 q 1151 199 1259 519 q 1059 -71 1059 -70 q 966 153 1044 -38 q 823 508 854 430 q 727 758 748 699 q 637 528 678 634 q 505 194 541 284 q 395 -72 434 16 q 309 194 375 -22 q 179 622 243 411 q 72 929 107 852 q 16 941 49 934 q -31 948 -16 947 "},"$":{"x_min":58,"x_max":621.890625,"ha":738,"o":"m 375 -215 l 312 -228 l 345 27 q 319 23 331 24 q 298 22 307 22 q 281 22 289 22 q 265 22 270 22 l 239 -215 l 173 -228 q 198 -96 185 -180 q 217 27 212 -11 q 151 41 184 31 q 103 63 118 51 l 89 -11 l 58 -18 q 68 129 63 26 q 73 283 73 231 l 105 279 l 109 174 q 159 121 127 147 q 226 85 191 95 l 267 490 q 158 583 191 536 q 115 724 115 641 q 156 859 115 801 q 306 952 206 929 l 315 1179 l 376 1189 q 359 1076 360 1088 q 354 961 354 1020 l 428 961 l 444 1179 l 512 1189 q 473 955 494 1125 q 535 941 502 951 q 577 927 549 937 l 588 976 l 621 980 q 612 911 616 955 q 601 706 601 806 l 569 718 l 569 801 q 529 862 560 830 q 471 902 498 894 l 439 542 q 558 441 517 497 q 609 280 609 372 q 549 118 609 186 q 389 30 489 50 l 375 -215 m 280 640 l 304 909 q 236 862 267 902 q 205 773 205 822 q 223 693 205 724 q 280 640 241 662 m 397 570 l 428 916 q 381 921 403 921 q 354 921 365 921 l 323 609 l 397 570 m 426 397 l 394 80 q 473 130 440 90 q 512 236 512 176 q 491 329 512 293 q 426 397 470 366 m 310 464 l 270 73 q 294 71 284 72 q 313 71 305 71 q 346 71 332 71 l 382 424 l 310 464 "},"Ì":{"x_min":57.890625,"x_max":544,"ha":611,"o":"m 384 569 l 384 483 q 385 197 384 333 q 390 42 386 62 q 445 33 400 39 q 537 23 489 27 l 544 -6 q 446 -1 518 -3 q 282 0 373 0 q 195 -1 254 0 q 66 -5 135 -2 l 71 24 q 136 30 92 24 q 219 43 181 36 q 224 286 223 83 q 226 495 226 489 l 226 577 l 226 603 l 226 639 l 226 677 l 226 713 l 226 746 l 226 775 l 226 800 l 226 822 l 226 840 l 226 855 q 219 929 226 911 q 160 937 212 930 q 73 948 109 943 l 66 978 q 156 973 88 975 q 329 972 224 972 q 456 973 391 972 q 543 977 521 975 l 536 948 l 390 929 q 385 817 386 911 q 384 569 384 724 m 57 1179 l 112 1286 q 261 1188 144 1264 q 387 1111 378 1112 l 370 1066 q 217 1127 337 1082 q 57 1179 77 1180 "},"µ":{"x_min":-1,"x_max":1461.5,"ha":1472,"o":"m 1008 -5 l 1011 23 l 1164 40 q 1132 242 1164 65 q 1068 583 1126 274 q 1023 821 1025 808 l 1018 821 q 919 585 1003 786 q 766 219 843 403 q 665 -10 689 35 q 571 230 654 12 q 430 600 498 419 q 348 821 353 805 l 343 821 q 273 419 308 619 q 230 43 230 154 l 354 23 l 360 -5 q 275 -2 346 -4 q 153 0 204 0 l -1 -5 l 8 23 q 61 31 46 29 q 107 41 76 33 q 167 281 121 80 q 254 666 214 481 q 310 929 301 881 l 172 948 l 164 978 q 246 974 172 976 q 364 972 321 972 q 475 974 396 972 q 572 977 554 977 l 567 948 q 503 938 532 944 q 463 929 475 931 q 587 579 490 840 q 715 243 679 332 q 805 448 733 277 q 930 750 864 584 q 999 929 997 916 q 950 940 979 936 q 904 948 921 945 l 897 978 l 1085 972 q 1187 973 1128 972 q 1278 977 1246 974 l 1274 948 q 1212 939 1237 943 q 1157 929 1187 936 q 1209 650 1173 831 q 1287 277 1216 612 q 1339 43 1329 77 q 1390 33 1354 38 q 1454 23 1426 27 l 1461 -5 q 1356 -2 1436 -5 q 1265 0 1276 0 q 1128 -2 1207 0 q 1008 -5 1050 -4 "},"Ç":{"x_min":76,"x_max":1088.5,"ha":1124,"o":"m 1030 658 l 998 668 q 995 729 998 688 q 989 783 992 770 q 880 886 966 838 q 655 945 777 945 q 356 829 469 945 q 243 545 243 713 q 392 193 243 340 q 759 46 542 46 q 934 62 849 46 q 1088 121 1019 79 l 1069 61 q 944 9 1037 34 q 678 -22 823 -22 q 544 -12 612 -22 q 363 39 437 2 q 152 218 228 105 q 76 463 76 330 q 139 712 76 599 q 296 880 196 813 q 503 973 396 946 q 709 994 588 994 q 874 981 789 994 q 999 957 959 969 q 1010 1002 1002 964 q 1028 1082 1018 1040 l 1060 1089 q 1030 658 1030 864 m 578 -1 l 651 -1 l 562 -106 q 654 -149 622 -122 q 686 -218 686 -176 q 595 -328 686 -288 q 425 -362 519 -362 l 437 -318 q 542 -295 507 -318 q 578 -234 578 -272 q 552 -176 578 -201 q 469 -135 526 -150 l 578 -1 "},"’":{"x_min":68.0625,"x_max":253,"ha":319,"o":"m 105 690 l 68 690 q 109 868 94 774 q 124 1045 124 961 l 253 999 q 179 849 226 952 q 105 690 141 769 "},"-":{"x_min":97.21875,"x_max":527.78125,"ha":625,"o":"m 108 556 l 527 556 l 509 489 q 313 474 450 489 q 97 443 176 459 l 108 556 "},"Q":{"x_min":76,"x_max":1334.328125,"ha":1314,"o":"m 1334 -314 l 1302 -328 q 1034 -188 1242 -316 q 773 -11 835 -66 q 712 -17 764 -12 q 631 -22 659 -22 q 419 5 514 -22 q 207 126 292 41 q 110 278 145 188 q 76 472 76 367 q 228 830 76 683 q 680 994 398 994 q 923 959 816 994 q 1110 844 1030 924 q 1217 667 1187 770 q 1237 534 1237 603 q 1156 244 1237 373 q 951 51 1082 126 q 1149 -161 1003 -28 q 1334 -314 1274 -275 m 688 31 q 974 160 867 31 q 1073 462 1073 279 q 938 801 1073 659 q 623 943 803 943 q 351 836 460 943 q 232 523 232 719 q 370 186 232 341 q 688 31 509 31 "},"M":{"x_min":-1,"x_max":1461.5,"ha":1472,"o":"m 1008 -5 l 1011 23 l 1164 40 q 1132 242 1164 65 q 1068 583 1126 274 q 1023 821 1025 808 l 1018 821 q 919 585 1003 786 q 766 219 843 403 q 665 -10 689 35 q 571 230 654 12 q 430 600 498 419 q 348 821 353 805 l 343 821 q 273 419 308 619 q 230 43 230 154 l 354 23 l 360 -5 q 275 -2 346 -4 q 153 0 204 0 l -1 -5 l 8 23 q 61 31 46 29 q 107 41 76 33 q 167 281 121 80 q 254 666 214 481 q 310 929 301 881 l 172 948 l 164 978 q 246 974 172 976 q 364 972 321 972 q 475 974 396 972 q 572 977 554 977 l 567 948 q 503 938 532 944 q 463 929 475 931 q 587 579 490 840 q 715 243 679 332 q 805 448 733 277 q 930 750 864 584 q 999 929 997 916 q 950 940 979 936 q 904 948 921 945 l 897 978 l 1085 972 q 1187 973 1128 972 q 1278 977 1246 974 l 1274 948 q 1212 939 1237 943 q 1157 929 1187 936 q 1209 650 1173 831 q 1287 277 1216 612 q 1339 43 1329 77 q 1390 33 1354 38 q 1454 23 1426 27 l 1461 -5 q 1356 -2 1436 -5 q 1265 0 1276 0 q 1128 -2 1207 0 q 1008 -5 1050 -4 "},"C":{"x_min":76,"x_max":1088.5,"ha":1124,"o":"m 1030 658 l 998 668 q 995 729 998 688 q 989 783 992 770 q 880 886 966 838 q 655 945 777 945 q 356 829 469 945 q 243 545 243 713 q 392 193 243 340 q 759 46 542 46 q 934 62 849 46 q 1088 121 1019 79 l 1069 61 q 944 9 1037 34 q 678 -22 823 -22 q 544 -12 612 -22 q 363 39 437 2 q 152 218 228 105 q 76 463 76 330 q 139 712 76 599 q 296 880 196 813 q 503 973 396 946 q 709 994 588 994 q 874 981 789 994 q 999 957 959 969 q 1010 1002 1002 964 q 1028 1082 1018 1040 l 1060 1089 q 1030 658 1030 864 "},"œ":{"x_min":87,"x_max":682,"ha":767,"o":"m 372 -21 l 303 -105 q 394 -149 362 -122 q 426 -217 426 -176 q 336 -328 426 -288 q 165 -362 259 -362 l 178 -318 q 282 -295 247 -318 q 318 -234 318 -272 q 292 -175 318 -201 q 209 -134 266 -150 l 302 -21 q 218 -11 258 -21 q 149 13 178 -2 l 118 -131 l 87 -140 q 94 -74 90 -112 q 108 87 108 44 q 110 172 108 108 q 114 277 112 237 q 114 306 114 300 l 145 298 q 147 238 145 277 q 154 176 150 200 q 241 66 183 108 q 369 25 299 25 q 510 73 453 25 q 567 199 567 122 q 486 358 567 290 q 388 426 459 380 q 185 601 233 527 q 144 749 144 666 q 209 912 144 844 q 430 994 288 994 q 543 985 490 994 q 618 969 565 983 q 629 1018 622 986 q 643 1081 636 1049 l 674 1086 q 650 883 659 981 q 642 705 642 784 l 610 719 q 608 774 610 754 q 604 825 607 794 q 543 905 590 868 q 419 950 486 950 q 290 904 337 950 q 250 811 250 865 q 340 677 250 743 q 450 605 373 654 q 638 441 591 516 q 682 280 682 372 q 593 63 682 147 q 372 -21 504 -21 "},"!":{"x_min":150.015625,"x_max":351.390625,"ha":500,"o":"m 249 269 l 193 253 q 182 623 193 355 q 159 961 172 890 q 351 985 262 971 q 316 783 343 950 q 271 485 283 578 q 249 269 249 319 m 307 -1 l 154 -21 l 150 127 l 298 145 l 307 -1 "},"ç":{"x_min":76,"x_max":1088.5,"ha":1124,"o":"m 1030 658 l 998 668 q 995 729 998 688 q 989 783 992 770 q 880 886 966 838 q 655 945 777 945 q 356 829 469 945 q 243 545 243 713 q 392 193 243 340 q 759 46 542 46 q 934 62 849 46 q 1088 121 1019 79 l 1069 61 q 944 9 1037 34 q 678 -22 823 -22 q 544 -12 612 -22 q 363 39 437 2 q 152 218 228 105 q 76 463 76 330 q 139 712 76 599 q 296 880 196 813 q 503 973 396 946 q 709 994 588 994 q 874 981 789 994 q 999 957 959 969 q 1010 1002 1002 964 q 1028 1082 1018 1040 l 1060 1089 q 1030 658 1030 864 m 578 -1 l 651 -1 l 562 -106 q 654 -149 622 -122 q 686 -218 686 -176 q 595 -328 686 -288 q 425 -362 519 -362 l 437 -318 q 542 -295 507 -318 q 578 -234 578 -272 q 552 -176 578 -201 q 469 -135 526 -150 l 578 -1 "},"È":{"x_min":66,"x_max":789.609375,"ha":885,"o":"m 226 476 l 226 540 q 223 766 226 634 q 216 929 220 897 q 172 935 209 930 q 71 948 135 940 l 66 977 l 313 972 l 342 972 l 384 972 q 606 974 516 972 q 721 981 696 976 l 732 1047 l 764 1053 q 748 913 759 1027 q 737 764 737 799 l 706 774 l 706 874 q 581 917 689 901 q 393 933 472 933 q 388 769 392 926 q 384 563 384 612 l 384 536 q 564 541 485 536 q 671 558 644 547 q 685 617 681 586 l 715 620 l 678 361 l 652 372 l 654 465 q 552 488 624 480 q 384 496 479 496 l 384 468 q 386 224 384 375 q 393 40 389 74 q 595 50 509 40 q 727 87 681 60 q 741 140 734 106 q 757 209 749 173 l 789 218 q 761 60 779 177 q 744 -102 744 -56 l 715 -96 l 715 -12 q 519 -4 692 -8 q 277 0 345 0 l 66 -5 l 72 24 q 141 30 95 24 q 216 43 187 36 q 223 200 220 60 q 226 476 226 340 m 235 1179 l 290 1286 q 439 1188 322 1264 q 565 1111 556 1112 l 548 1066 q 395 1127 515 1082 q 235 1179 255 1180 "},"{":{"x_min":41,"x_max":429.890625,"ha":486,"o":"m 429 -143 l 411 -178 q 220 -116 296 -168 q 122 60 122 -51 q 140 218 122 84 q 159 370 159 352 q 132 452 159 423 q 41 491 106 481 l 52 523 q 150 626 150 523 q 138 772 143 709 q 134 852 134 835 q 203 1006 134 948 q 427 1083 278 1070 l 420 1044 q 314 1009 356 1044 q 263 878 263 966 l 267 682 q 221 560 267 610 q 149 503 207 546 q 243 426 211 476 q 276 319 276 377 q 276 299 276 306 l 253 59 q 253 28 253 48 q 315 -105 253 -64 q 429 -143 349 -129 "},"X":{"x_min":-30,"x_max":1001,"ha":985,"o":"m 1001 -50 l 942 -64 q 746 119 857 0 q 572 319 664 208 q 464 453 518 386 q 342 273 432 418 q 208 43 246 122 q 284 29 234 37 q 324 23 303 26 l 328 -5 q 243 -3 317 -5 q 121 0 168 -1 q 45 -1 81 0 q -30 -5 8 -2 l -20 23 q 31 31 15 29 q 67 43 47 34 q 175 162 92 58 q 328 359 251 257 q 431 497 379 427 q 317 650 412 520 q 194 815 207 798 q 101 929 135 894 q 54 940 83 934 q 11 948 25 946 l 7 978 q 219 972 40 972 q 337 974 274 972 q 440 977 401 976 l 432 948 q 381 943 406 945 q 314 929 357 940 q 417 770 326 904 q 531 611 507 637 q 639 762 578 673 q 743 929 718 879 q 691 941 732 933 q 645 948 649 948 l 639 978 q 820 972 703 972 q 887 973 850 972 q 964 977 923 975 l 962 948 l 875 929 q 725 766 859 923 q 562 568 630 654 q 688 388 584 537 q 859 144 773 266 q 1001 -50 945 22 "},"ô":{"x_min":76,"x_max":1239,"ha":1315,"o":"m 638 -22 q 420 5 512 -22 q 209 133 298 43 q 105 288 135 208 q 76 469 76 368 q 237 834 76 684 q 685 994 409 994 q 894 969 805 994 q 1070 881 983 945 q 1194 730 1150 823 q 1239 537 1239 637 q 1069 132 1239 286 q 638 -22 899 -22 m 707 35 q 963 152 857 35 q 1070 435 1070 269 q 940 796 1070 652 q 634 941 811 941 q 363 842 475 941 q 236 527 236 728 q 369 187 236 334 q 707 35 508 35 m 514 1071 l 487 1103 q 579 1191 505 1120 q 664 1274 653 1261 q 769 1179 736 1208 q 854 1105 837 1119 l 828 1071 l 661 1164 q 585 1119 637 1153 q 514 1071 532 1085 "},"Ê":{"x_min":66,"x_max":789.609375,"ha":885,"o":"m 226 476 l 226 540 q 223 766 226 634 q 216 929 220 897 q 172 935 209 930 q 71 948 135 940 l 66 977 l 313 972 l 342 972 l 384 972 q 606 974 516 972 q 721 981 696 976 l 732 1047 l 764 1053 q 748 913 759 1027 q 737 764 737 799 l 706 774 l 706 874 q 581 917 689 901 q 393 933 472 933 q 388 769 392 926 q 384 563 384 612 l 384 536 q 564 541 485 536 q 671 558 644 547 q 685 617 681 586 l 715 620 l 678 361 l 652 372 l 654 465 q 552 488 624 480 q 384 496 479 496 l 384 468 q 386 224 384 375 q 393 40 389 74 q 595 50 509 40 q 727 87 681 60 q 741 140 734 106 q 757 209 749 173 l 789 218 q 761 60 779 177 q 744 -102 744 -56 l 715 -96 l 715 -12 q 519 -4 692 -8 q 277 0 345 0 l 66 -5 l 72 24 q 141 30 95 24 q 216 43 187 36 q 223 200 220 60 q 226 476 226 340 m 285 1071 l 258 1103 q 350 1191 276 1120 q 435 1274 424 1261 q 540 1179 507 1208 q 625 1105 608 1119 l 599 1071 l 432 1164 q 356 1119 408 1153 q 285 1071 303 1085 "},")":{"x_min":56.9375,"x_max":381,"ha":486,"o":"m 73 1079 l 133 1089 q 278 902 209 1022 q 381 544 381 723 q 323 209 381 372 q 120 -176 262 35 l 56 -185 q 136 -46 100 -122 q 215 174 186 59 q 252 459 252 316 q 186 869 252 691 q 73 1079 147 976 "},"Å":{"x_min":-76,"x_max":1051,"ha":989,"o":"m 585 -6 l 592 23 q 683 31 672 30 q 733 42 717 39 q 659 257 695 149 q 587 449 602 422 q 420 442 537 449 q 266 430 304 436 q 236 328 261 417 q 169 42 180 127 q 217 33 180 40 q 289 23 254 27 l 294 -5 l 85 0 l -76 -6 l -71 23 q 47 42 -12 28 q 154 299 68 78 q 305 695 226 485 q 393 930 362 847 q 340 940 380 934 q 283 948 299 947 l 281 978 l 462 972 q 560 973 495 972 q 699 977 624 974 l 695 948 q 651 943 674 945 q 590 930 628 940 q 648 750 605 875 q 735 505 669 690 q 820 280 783 377 q 924 43 881 126 q 986 31 957 36 q 1046 23 1014 27 l 1051 -5 q 977 -2 1045 -4 q 820 0 909 0 q 702 -3 799 0 q 585 -6 605 -6 m 577 491 q 503 703 531 621 q 436 907 454 848 q 350 673 379 753 q 286 496 293 517 l 577 491 m 474 1074 q 373 1097 413 1074 q 334 1164 334 1121 q 388 1251 334 1214 q 502 1288 442 1288 q 617 1263 579 1288 q 655 1199 655 1239 q 604 1114 655 1155 q 474 1074 554 1074 m 412 1187 q 439 1125 412 1149 q 499 1102 466 1102 q 551 1122 529 1102 q 573 1175 573 1142 q 550 1234 573 1208 q 489 1260 528 1260 q 436 1239 461 1260 q 412 1187 412 1218 "},"ø":{"x_min":76,"x_max":1239,"ha":1315,"o":"m 180 -39 l 88 -22 q 151 33 121 7 q 232 112 198 76 q 120 257 159 176 q 76 469 76 350 q 237 834 76 684 q 685 994 409 994 q 853 980 785 994 q 1038 904 954 959 q 1094 958 1066 929 q 1139 1006 1122 987 l 1230 982 q 1158 923 1214 971 q 1093 865 1129 898 q 1201 717 1163 802 q 1239 537 1239 631 q 1069 132 1239 286 q 638 -22 900 -22 q 457 -3 536 -22 q 279 74 357 19 q 234 24 266 60 q 180 -39 202 -11 m 679 461 l 382 173 q 531 71 448 107 q 707 35 614 35 q 963 152 857 35 q 1070 436 1070 269 q 976 750 1070 611 q 788 569 909 687 q 679 461 713 495 m 940 798 q 634 941 810 941 q 363 842 474 941 q 236 527 236 728 q 266 356 236 438 q 344 218 293 284 q 488 358 381 252 q 631 497 576 443 q 940 798 791 647 "},"â":{"x_min":-76,"x_max":1051,"ha":989,"o":"m 585 -6 l 592 23 q 683 31 672 30 q 733 42 717 39 q 659 257 695 149 q 587 449 602 422 q 420 442 537 449 q 266 430 304 436 q 236 328 261 417 q 169 42 180 127 q 217 33 180 40 q 289 23 254 27 l 294 -5 l 85 0 l -76 -6 l -71 23 q 47 42 -12 28 q 154 299 68 78 q 305 695 226 485 q 393 930 362 847 q 340 940 380 934 q 283 948 299 947 l 281 978 l 462 972 q 560 973 495 972 q 699 977 624 974 l 695 948 q 651 943 674 945 q 590 930 628 940 q 648 750 605 875 q 735 505 669 690 q 820 280 783 377 q 924 43 881 126 q 986 31 957 36 q 1046 23 1014 27 l 1051 -5 q 977 -2 1045 -4 q 820 0 909 0 q 702 -3 799 0 q 585 -6 605 -6 m 577 491 q 503 703 531 621 q 436 907 454 848 q 350 673 379 753 q 286 496 293 517 l 577 491 m 337 1071 l 310 1103 q 402 1191 328 1120 q 487 1274 476 1261 q 592 1179 559 1208 q 677 1105 660 1119 l 651 1071 l 484 1164 q 408 1119 460 1153 q 337 1071 355 1085 "},"}":{"x_min":55,"x_max":444,"ha":486,"o":"m 73 -178 l 55 -143 q 168 -105 133 -129 q 232 28 232 -64 q 232 59 232 48 l 209 299 q 209 319 209 312 q 240 426 209 377 q 336 504 271 476 q 263 559 273 548 q 218 683 218 609 l 222 879 q 171 1009 222 968 q 64 1044 130 1044 l 57 1083 q 281 1006 206 1070 q 351 852 351 948 q 342 733 351 827 q 334 626 334 638 q 356 548 334 573 q 432 523 378 523 l 444 491 q 351 454 377 481 q 326 370 326 426 q 344 210 326 344 q 363 60 363 76 q 265 -115 363 -50 q 73 -178 188 -168 "},"Ä":{"x_min":-76,"x_max":1051,"ha":989,"o":"m 585 -6 l 592 23 q 683 31 672 30 q 733 42 717 39 q 659 257 695 149 q 587 449 602 422 q 420 442 537 449 q 266 430 304 436 q 236 328 261 417 q 169 42 180 127 q 217 33 180 40 q 289 23 254 27 l 294 -5 l 85 0 l -76 -6 l -71 23 q 47 42 -12 28 q 154 299 68 78 q 305 695 226 485 q 393 930 362 847 q 340 940 380 934 q 283 948 299 947 l 281 978 l 462 972 q 560 973 495 972 q 699 977 624 974 l 695 948 q 651 943 674 945 q 590 930 628 940 q 648 750 605 875 q 735 505 669 690 q 820 280 783 377 q 924 43 881 126 q 986 31 957 36 q 1046 23 1014 27 l 1051 -5 q 977 -2 1045 -4 q 820 0 909 0 q 702 -3 799 0 q 585 -6 605 -6 m 577 491 q 503 703 531 621 q 436 907 454 848 q 350 673 379 753 q 286 496 293 517 l 577 491 m 259 1137 l 326 1246 l 433 1173 l 363 1066 l 259 1137 m 556 1139 l 624 1246 l 730 1173 l 659 1066 l 556 1139 "},"¸":{"x_min":500,"x_max":761,"ha":1274,"o":"m 653 -1 l 726 -1 l 637 -106 q 729 -149 697 -122 q 761 -218 761 -176 q 670 -328 761 -288 q 500 -362 594 -362 l 512 -318 q 617 -295 582 -318 q 653 -234 653 -272 q 627 -176 653 -201 q 544 -135 601 -150 l 653 -1 "},"a":{"x_min":-76,"x_max":1051,"ha":989,"o":"m 585 -6 l 592 23 q 683 31 672 30 q 733 42 717 39 q 659 257 695 149 q 587 449 602 422 q 420 442 537 449 q 266 430 304 436 q 236 328 261 417 q 169 42 180 127 q 217 33 180 40 q 289 23 254 27 l 294 -5 l 85 0 l -76 -6 l -71 23 q 47 42 -12 28 q 154 299 68 78 q 305 695 226 485 q 393 930 362 847 q 340 940 380 934 q 283 948 299 947 l 281 978 l 462 972 q 560 973 495 972 q 699 977 624 974 l 695 948 q 651 943 674 945 q 590 930 628 940 q 648 750 605 875 q 735 505 669 690 q 820 280 783 377 q 924 43 881 126 q 986 31 957 36 q 1046 23 1014 27 l 1051 -5 q 977 -2 1045 -4 q 820 0 909 0 q 702 -3 799 0 q 585 -6 605 -6 m 577 491 q 503 703 531 621 q 436 907 454 848 q 350 673 379 753 q 286 496 293 517 l 577 491 "},"—":{"x_min":0,"x_max":1388.890625,"ha":1389,"o":"m 11 556 l 1388 556 l 1377 467 q 1253 469 1376 467 q 1022 472 1130 471 q 826 473 913 473 q 473 471 634 473 q 190 465 312 470 q 0 452 68 461 l 11 556 "},"N":{"x_min":54.5625,"x_max":1211.5,"ha":1261,"o":"m 60 943 l 54 972 q 160 974 96 972 q 371 982 321 982 q 465 856 387 956 q 612 670 553 744 q 704 559 687 576 q 900 330 822 420 q 1005 215 983 233 q 999 714 1005 538 q 976 929 992 890 q 907 941 955 933 q 836 949 858 949 l 829 977 q 917 974 849 976 q 1036 972 985 972 q 1126 973 1069 972 q 1211 978 1183 975 l 1205 949 l 1100 929 q 1081 791 1089 894 q 1074 634 1074 687 q 1064 263 1074 555 q 1050 -69 1055 -29 q 921 74 1036 -55 q 717 310 818 192 q 592 454 649 390 l 262 850 l 262 815 q 271 359 262 644 q 293 43 280 75 q 367 31 305 38 q 444 23 380 30 l 449 -5 q 364 -2 430 -4 q 243 0 297 0 l 54 -5 l 58 23 q 123 31 94 27 q 174 43 151 36 q 194 287 185 69 q 205 644 199 386 q 212 926 212 902 q 142 937 185 931 q 60 943 100 943 "},"˚":{"x_min":476,"x_max":797,"ha":1274,"o":"m 616 1074 q 515 1097 555 1074 q 476 1164 476 1121 q 530 1251 476 1214 q 644 1288 584 1288 q 759 1263 721 1288 q 797 1199 797 1239 q 746 1114 797 1155 q 616 1074 696 1074 m 554 1187 q 581 1125 554 1149 q 641 1102 608 1102 q 693 1122 671 1102 q 715 1175 715 1142 q 692 1234 715 1208 q 631 1260 670 1260 q 578 1239 603 1260 q 554 1187 554 1218 "},"ú":{"x_min":61,"x_max":1137.390625,"ha":1190,"o":"m 182 398 l 182 615 q 180 814 182 734 q 175 929 179 894 q 131 937 169 930 q 65 948 92 944 l 61 978 q 152 975 72 978 q 295 972 233 972 q 409 975 331 972 q 501 978 487 978 l 494 948 q 423 940 469 946 q 349 929 377 934 q 344 779 345 904 q 343 610 343 654 l 343 425 q 423 118 343 218 q 617 31 494 31 q 817 97 747 31 q 891 233 872 149 q 911 457 911 318 l 911 585 l 911 610 l 911 644 l 911 682 l 911 718 l 911 749 l 911 779 l 911 804 l 911 825 l 911 843 q 904 929 911 911 q 827 941 883 933 q 752 948 772 948 l 742 978 q 836 975 754 978 q 967 972 917 972 q 1137 978 1090 972 l 1129 948 l 1031 929 q 1027 841 1029 914 q 1025 697 1025 768 l 1025 630 l 1025 459 q 997 244 1025 332 q 889 75 965 141 q 768 3 838 29 q 600 -22 698 -22 q 284 97 393 -22 q 182 398 182 208 m 831 1286 l 884 1179 q 726 1129 862 1180 q 573 1066 609 1084 l 556 1111 q 681 1187 566 1112 q 831 1286 788 1257 "},"2":{"x_min":-9,"x_max":709.046875,"ha":803,"o":"m 675 286 l 709 293 l 678 60 q 665 -18 668 5 q 662 -113 662 -42 l 631 -103 l 631 -66 q 627 -4 631 -64 q 439 -2 517 -4 q 289 0 362 -1 l -9 0 q 190 148 115 87 q 295 242 236 186 q 449 443 397 342 q 501 635 501 544 q 422 866 501 784 q 272 933 358 933 q 192 923 222 933 q 142 896 162 913 q 126 817 135 867 q 110 727 117 766 l 77 720 q 97 891 89 802 q 106 1074 106 979 l 138 1064 l 147 975 q 218 988 178 983 q 301 994 258 994 q 567 918 473 994 q 662 712 662 842 q 590 481 662 599 q 410 266 530 383 q 316 186 383 240 q 202 98 249 133 l 346 100 q 522 115 429 100 q 639 151 614 130 q 661 222 650 184 q 675 286 671 259 "},"ü":{"x_min":61,"x_max":1137.390625,"ha":1190,"o":"m 182 398 l 182 615 q 180 814 182 734 q 175 929 179 894 q 131 937 169 930 q 65 948 92 944 l 61 978 q 152 975 72 978 q 295 972 233 972 q 409 975 331 972 q 501 978 487 978 l 494 948 q 423 940 469 946 q 349 929 377 934 q 344 779 345 904 q 343 610 343 654 l 343 425 q 423 118 343 218 q 617 31 494 31 q 817 97 747 31 q 891 233 872 149 q 911 457 911 318 l 911 585 l 911 610 l 911 644 l 911 682 l 911 718 l 911 749 l 911 779 l 911 804 l 911 825 l 911 843 q 904 929 911 911 q 827 941 883 933 q 752 948 772 948 l 742 978 q 836 975 754 978 q 967 972 917 972 q 1137 978 1090 972 l 1129 948 l 1031 929 q 1027 841 1029 914 q 1025 697 1025 768 l 1025 630 l 1025 459 q 997 244 1025 332 q 889 75 965 141 q 768 3 838 29 q 600 -22 698 -22 q 284 97 393 -22 q 182 398 182 208 m 387 1137 l 454 1246 l 561 1173 l 491 1066 l 387 1137 m 684 1139 l 752 1246 l 858 1173 l 787 1066 l 684 1139 "},"¯":{"x_min":454.5625,"x_max":818.453125,"ha":1274,"o":"m 468 1201 l 818 1201 l 810 1147 q 623 1133 776 1147 q 454 1111 469 1120 l 468 1201 "},"Z":{"x_min":37,"x_max":937,"ha":997,"o":"m 905 306 l 937 315 q 885 15 910 163 q 861 -160 861 -132 l 829 -150 l 835 -16 q 684 -4 823 -9 q 416 0 546 0 l 37 -8 q 231 245 67 23 q 530 659 374 440 q 708 915 687 877 q 409 897 602 915 q 188 855 216 880 q 164 776 182 840 q 138 694 145 712 l 106 690 q 138 909 125 775 q 151 1106 151 1044 l 183 1099 l 187 969 q 348 962 205 967 q 538 957 491 957 q 742 960 560 957 q 936 964 924 964 q 747 710 905 926 q 460 316 583 486 q 272 50 303 98 q 596 65 446 50 q 846 126 798 86 q 868 184 853 134 q 905 306 884 234 "},"u":{"x_min":61,"x_max":1137.390625,"ha":1190,"o":"m 182 398 l 182 615 q 180 814 182 734 q 175 929 179 894 q 131 937 169 930 q 65 948 92 944 l 61 978 q 152 975 72 978 q 295 972 233 972 q 409 975 331 972 q 501 978 487 978 l 494 948 q 423 940 469 946 q 349 929 377 934 q 344 779 345 904 q 343 610 343 654 l 343 425 q 423 118 343 218 q 617 31 494 31 q 817 97 747 31 q 891 233 872 149 q 911 457 911 318 l 911 585 l 911 610 l 911 644 l 911 682 l 911 718 l 911 749 l 911 779 l 911 804 l 911 825 l 911 843 q 904 929 911 911 q 827 941 883 933 q 752 948 772 948 l 742 978 q 836 975 754 978 q 967 972 917 972 q 1137 978 1090 972 l 1129 948 l 1031 929 q 1027 841 1029 914 q 1025 697 1025 768 l 1025 630 l 1025 459 q 997 244 1025 332 q 889 75 965 141 q 768 3 838 29 q 600 -22 698 -22 q 284 97 393 -22 q 182 398 182 208 "},"":{"x_min":66,"x_max":1689.609375,"ha":1701,"o":"m 226 455 l 226 541 q 224 820 226 751 q 219 929 223 890 q 150 940 209 933 q 71 948 92 947 l 66 977 l 185 973 l 309 972 l 343 972 l 391 972 q 666 973 604 972 q 749 980 728 975 l 767 1079 l 799 1086 q 784 929 792 1045 q 776 744 776 813 l 744 755 q 742 811 744 782 q 737 865 741 841 q 588 913 705 895 q 395 930 471 930 q 386 782 389 913 q 384 558 384 650 l 384 528 q 551 532 457 528 q 677 547 645 537 q 685 580 678 551 q 696 629 692 609 l 725 633 q 710 479 717 570 q 703 323 703 387 l 674 332 q 673 370 674 351 q 667 450 672 389 q 551 475 644 466 q 384 485 458 485 l 384 443 q 386 203 384 336 q 395 43 389 70 q 478 30 424 37 q 547 23 507 27 l 553 -5 q 437 -3 522 -5 q 297 0 352 -1 q 194 -1 254 0 q 66 -5 134 -2 l 71 23 q 148 30 107 26 q 219 43 188 34 q 224 237 223 76 q 226 455 226 398 m 1109 509 l 1109 590 l 1109 626 l 1109 665 l 1109 703 l 1109 738 l 1109 768 l 1109 794 l 1109 817 l 1109 836 l 1109 851 q 1102 929 1109 911 q 1029 940 1085 932 q 953 948 972 948 l 949 977 q 1053 975 970 977 q 1189 972 1136 973 q 1343 973 1267 972 q 1445 977 1418 975 l 1438 948 l 1273 929 q 1268 739 1269 898 q 1267 573 1267 580 l 1267 523 q 1268 217 1267 368 q 1273 44 1269 66 q 1475 65 1390 44 q 1606 115 1560 86 q 1635 197 1620 148 q 1656 273 1650 254 l 1689 279 q 1647 65 1664 169 q 1616 -178 1631 -39 l 1584 -171 l 1591 -8 q 1438 -4 1581 -6 q 1185 0 1295 -1 q 1056 -2 1146 0 q 949 -5 966 -5 l 954 23 q 1029 29 978 23 q 1102 43 1081 36 q 1107 295 1106 84 q 1109 509 1109 506 "},"˜":{"x_min":415.28125,"x_max":858.328125,"ha":1274,"o":"m 819 1211 l 858 1202 q 816 1129 845 1165 q 750 1085 780 1085 q 702 1093 730 1085 q 642 1116 675 1102 q 581 1138 609 1129 q 536 1147 552 1147 q 486 1133 505 1147 q 454 1097 468 1120 l 415 1105 q 456 1181 427 1141 q 522 1233 494 1233 q 575 1220 543 1233 q 620 1202 606 1208 q 686 1179 654 1190 q 744 1168 719 1168 q 789 1177 773 1168 q 819 1211 805 1187 "},"Ó":{"x_min":76,"x_max":1239,"ha":1315,"o":"m 638 -22 q 420 5 512 -22 q 209 133 298 43 q 105 288 135 208 q 76 469 76 368 q 237 834 76 684 q 685 994 409 994 q 894 969 805 994 q 1070 881 983 945 q 1194 730 1150 823 q 1239 537 1239 637 q 1069 132 1239 286 q 638 -22 899 -22 m 707 35 q 963 152 857 35 q 1070 435 1070 269 q 940 796 1070 652 q 634 941 811 941 q 363 842 475 941 q 236 527 236 728 q 369 187 236 334 q 707 35 508 35 m 852 1286 l 905 1179 q 747 1129 883 1180 q 594 1066 630 1084 l 577 1111 q 702 1187 587 1112 q 852 1286 809 1257 "},"k":{"x_min":65.671875,"x_max":1133.71875,"ha":1111,"o":"m 225 488 l 225 567 q 223 797 225 699 q 218 929 222 895 l 69 948 l 65 978 q 153 974 74 976 q 310 972 232 972 q 437 973 361 972 q 537 977 512 975 l 532 948 l 389 929 q 384 729 385 898 q 383 555 383 560 l 383 512 q 529 639 455 575 q 715 806 669 763 q 829 929 810 895 q 790 938 819 932 q 726 948 761 944 l 721 978 l 932 972 l 1083 977 l 1075 948 q 1026 941 1042 944 q 983 931 1010 938 q 794 788 944 911 q 607 630 667 684 q 753 434 632 590 q 976 155 875 277 q 1133 -24 1097 8 l 1086 -40 q 887 114 1036 -20 q 623 366 773 216 q 470 522 515 473 q 424 485 449 506 q 383 449 399 465 l 383 416 q 384 199 383 313 q 389 49 385 85 q 475 32 412 39 q 548 23 539 24 l 551 -5 q 458 -1 530 -2 q 303 0 386 0 q 175 -3 267 0 q 65 -6 83 -6 l 71 23 q 142 28 101 23 q 218 42 182 34 q 221 247 218 78 q 225 488 225 416 "},"ˇ":{"x_min":454.171875,"x_max":819.453125,"ha":1274,"o":"m 794 1274 l 819 1240 q 704 1130 813 1235 q 644 1071 661 1089 q 568 1137 612 1096 q 454 1240 511 1189 l 480 1274 q 559 1228 487 1268 q 647 1181 631 1187 q 724 1226 669 1190 q 794 1274 779 1263 "},"Ù":{"x_min":61,"x_max":1137.390625,"ha":1190,"o":"m 182 398 l 182 615 q 180 814 182 734 q 175 929 179 894 q 131 937 169 930 q 65 948 92 944 l 61 978 q 152 975 72 978 q 295 972 233 972 q 409 975 331 972 q 501 978 487 978 l 494 948 q 423 940 469 946 q 349 929 377 934 q 344 779 345 904 q 343 610 343 654 l 343 425 q 423 118 343 218 q 617 31 494 31 q 817 97 747 31 q 891 233 872 149 q 911 457 911 318 l 911 585 l 911 610 l 911 644 l 911 682 l 911 718 l 911 749 l 911 779 l 911 804 l 911 825 l 911 843 q 904 929 911 911 q 827 941 883 933 q 752 948 772 948 l 742 978 q 836 975 754 978 q 967 972 917 972 q 1137 978 1090 972 l 1129 948 l 1031 929 q 1027 841 1029 914 q 1025 697 1025 768 l 1025 630 l 1025 459 q 997 244 1025 332 q 889 75 965 141 q 768 3 838 29 q 600 -22 698 -22 q 284 97 393 -22 q 182 398 182 208 m 346 1179 l 401 1286 q 550 1188 433 1264 q 676 1111 667 1112 l 659 1066 q 506 1127 626 1082 q 346 1179 366 1180 "},"Ÿ":{"x_min":78,"x_max":1208.546875,"ha":1257,"o":"m 1075 232 l 1075 187 q 1075 101 1075 161 q 1075 23 1075 41 q 905 -8 1015 5 q 720 -22 795 -22 q 547 -10 626 -22 q 353 44 432 5 q 150 220 222 109 q 78 462 78 330 q 141 713 78 599 q 297 881 198 814 q 488 968 387 942 q 705 994 589 994 q 885 983 790 994 q 1016 959 980 973 l 1041 1088 l 1073 1095 q 1061 910 1068 1059 q 1054 666 1054 760 l 1022 682 q 1018 736 1022 710 q 1006 810 1015 763 q 898 893 963 861 q 645 945 794 945 q 355 829 467 945 q 243 544 243 714 q 376 201 243 358 q 736 28 523 28 q 825 34 780 28 q 912 64 871 41 q 917 201 917 96 l 917 275 l 917 291 q 911 386 917 356 q 832 392 868 388 q 771 401 797 395 l 762 430 l 990 426 l 1018 426 l 1046 426 l 1072 426 l 1096 426 l 1115 426 l 1132 426 q 1208 430 1197 426 l 1201 401 q 1134 394 1165 397 q 1080 386 1102 391 q 1076 320 1077 372 q 1075 232 1075 269 m 812 1256 l 836 1233 q 736 1134 796 1168 q 628 1107 686 1107 q 503 1150 557 1107 q 437 1233 459 1184 l 464 1256 q 532 1208 486 1228 q 639 1189 579 1189 q 753 1212 701 1189 q 812 1256 793 1230 "},"¢":{"x_min":98.453125,"x_max":702.0625,"ha":786,"o":"m 492 740 l 455 229 q 482 223 473 224 q 514 222 492 222 q 618 234 568 222 q 702 272 667 247 l 692 217 q 604 185 668 201 q 449 169 539 169 q 442 67 444 114 q 441 -47 441 19 l 367 -61 q 381 26 373 -42 q 396 173 389 96 q 172 273 251 191 q 98 463 98 349 q 134 615 98 548 q 231 722 170 681 q 335 773 283 757 q 440 789 387 789 q 442 904 440 840 q 444 981 445 969 l 519 1004 q 501 870 501 871 q 497 789 497 829 q 591 782 545 789 q 642 772 616 776 l 657 850 l 689 854 q 677 730 682 822 q 672 568 672 638 l 640 570 q 637 612 640 588 q 631 653 635 635 q 584 708 617 683 q 492 740 541 740 m 400 239 l 438 740 q 296 677 348 740 q 245 520 245 615 q 289 343 245 418 q 400 239 334 268 "},"ß":{"x_min":87,"x_max":1449,"ha":1533,"o":"m 119 -131 l 87 -140 q 95 -74 91 -112 q 109 87 109 44 q 111 172 109 108 q 115 277 113 237 q 115 306 115 300 l 146 298 q 148 238 146 277 q 155 176 151 200 q 242 66 184 108 q 370 25 300 25 q 511 73 454 25 q 568 199 568 122 q 487 358 568 290 q 389 426 460 380 q 186 601 234 527 q 145 749 145 666 q 210 912 145 844 q 431 994 289 994 q 544 985 491 994 q 619 969 566 983 q 630 1018 623 986 q 644 1081 637 1049 l 675 1086 q 651 883 660 981 q 643 705 643 784 l 611 719 q 609 774 611 754 q 605 825 608 794 q 544 905 591 868 q 420 950 487 950 q 291 904 338 950 q 251 811 251 865 q 341 677 251 743 q 451 605 374 654 q 639 441 592 516 q 683 280 683 372 q 583 57 683 140 q 341 -22 488 -22 q 234 -12 291 -22 q 150 13 177 -2 l 119 -131 m 885 -131 l 853 -140 q 862 -74 857 -112 q 876 87 876 44 q 877 172 876 108 q 881 277 879 237 q 881 306 881 300 l 912 298 q 914 238 912 277 q 921 176 917 200 q 1008 66 950 108 q 1136 25 1066 25 q 1277 73 1220 25 q 1334 199 1334 122 q 1253 358 1334 290 q 1156 426 1227 380 q 953 601 1000 527 q 912 749 912 666 q 977 912 912 844 q 1197 994 1056 994 q 1310 985 1257 994 q 1385 969 1332 983 q 1396 1018 1389 986 q 1410 1081 1403 1049 l 1442 1086 q 1418 883 1427 981 q 1409 705 1409 784 l 1377 719 q 1375 774 1377 754 q 1371 825 1374 794 q 1310 905 1357 868 q 1187 950 1253 950 q 1058 904 1105 950 q 1018 811 1018 865 q 1108 677 1018 743 q 1217 605 1141 654 q 1406 441 1358 516 q 1449 280 1449 372 q 1349 57 1449 140 q 1107 -22 1254 -22 q 1000 -12 1057 -22 q 916 12 943 -2 l 885 -131 "},"Ş":{"x_min":87,"x_max":682,"ha":767,"o":"m 372 -21 l 303 -105 q 394 -149 362 -122 q 426 -217 426 -176 q 336 -328 426 -288 q 165 -362 259 -362 l 178 -318 q 282 -295 247 -318 q 318 -234 318 -272 q 292 -175 318 -201 q 209 -134 266 -150 l 302 -21 q 218 -11 258 -21 q 149 13 178 -2 l 118 -131 l 87 -140 q 94 -74 90 -112 q 108 87 108 44 q 110 172 108 108 q 114 277 112 237 q 114 306 114 300 l 145 298 q 147 238 145 277 q 154 176 150 200 q 241 66 183 108 q 369 25 299 25 q 510 73 453 25 q 567 199 567 122 q 486 358 567 290 q 388 426 459 380 q 185 601 233 527 q 144 749 144 666 q 209 912 144 844 q 430 994 288 994 q 543 985 490 994 q 618 969 565 983 q 629 1018 622 986 q 643 1081 636 1049 l 674 1086 q 650 883 659 981 q 642 705 642 784 l 610 719 q 608 774 610 754 q 604 825 607 794 q 543 905 590 868 q 419 950 486 950 q 290 904 337 950 q 250 811 250 865 q 340 677 250 743 q 450 605 373 654 q 638 441 591 516 q 682 280 682 372 q 593 63 682 147 q 372 -21 504 -21 "},"é":{"x_min":66,"x_max":789.609375,"ha":885,"o":"m 226 476 l 226 540 q 223 766 226 634 q 216 929 220 897 q 172 935 209 930 q 71 948 135 940 l 66 977 l 191 972 l 313 972 l 342 972 l 384 972 q 606 974 516 972 q 721 981 696 976 l 732 1047 l 764 1053 q 748 913 759 1027 q 737 764 737 799 l 706 774 l 706 874 q 581 917 689 901 q 393 933 472 933 q 388 769 392 926 q 384 563 384 612 l 384 536 q 564 541 485 536 q 671 558 644 547 q 685 617 681 586 l 715 620 l 678 361 l 652 372 l 654 465 q 552 488 624 480 q 384 496 479 496 l 384 468 q 386 224 384 375 q 393 40 389 74 q 595 50 509 40 q 727 87 681 60 q 741 140 734 106 q 757 209 749 173 l 789 218 q 761 60 779 177 q 744 -102 744 -56 l 715 -96 l 715 -12 q 519 -4 692 -8 q 277 0 345 0 l 66 -5 l 72 24 q 141 30 95 24 q 216 43 187 36 q 223 200 220 60 q 226 476 226 340 m 637 1286 l 690 1179 q 532 1129 668 1180 q 379 1066 415 1084 l 362 1111 q 487 1187 372 1112 q 637 1286 594 1257 "},"s":{"x_min":87,"x_max":683,"ha":767,"o":"m 119 -131 l 87 -140 q 95 -74 91 -112 q 109 87 109 44 q 111 172 109 108 q 115 277 113 237 q 115 306 115 300 l 146 298 q 148 238 146 277 q 155 176 151 200 q 242 66 184 108 q 370 25 300 25 q 511 73 454 25 q 568 199 568 122 q 487 358 568 290 q 389 426 460 380 q 186 601 234 527 q 145 749 145 666 q 210 912 145 844 q 431 994 289 994 q 544 985 491 994 q 619 969 566 983 q 630 1018 623 986 q 644 1081 637 1049 l 675 1086 q 651 883 660 981 q 643 705 643 784 l 611 719 q 609 774 611 754 q 605 825 608 794 q 544 905 591 868 q 420 950 487 950 q 291 904 338 950 q 251 811 251 865 q 341 677 251 743 q 451 605 374 654 q 639 441 592 516 q 683 280 683 372 q 583 57 683 140 q 341 -22 488 -22 q 234 -12 291 -22 q 150 13 177 -2 l 119 -131 "},"B":{"x_min":66,"x_max":847,"ha":949,"o":"m 226 468 l 226 555 q 223 759 226 631 q 216 929 220 887 q 72 943 136 943 l 66 972 q 188 974 103 972 q 464 983 440 983 q 721 917 643 983 q 777 802 777 870 q 771 736 777 760 q 740 672 765 712 q 649 577 707 619 q 561 527 606 547 q 756 437 675 505 q 847 255 847 359 q 758 62 847 136 q 523 -11 669 -11 q 407 -5 506 -11 q 277 0 309 0 q 175 -2 263 0 q 66 -5 88 -5 l 71 23 q 159 31 124 27 q 216 43 194 36 q 224 285 223 108 q 226 468 226 462 m 376 484 l 376 408 q 381 196 376 316 q 392 62 387 76 q 453 38 417 44 q 503 33 488 33 q 644 79 598 33 q 691 202 691 126 q 650 342 691 272 q 539 449 609 413 q 466 474 507 465 q 394 484 425 484 q 376 484 381 484 m 376 601 l 376 524 q 455 532 419 524 q 542 570 506 544 q 623 744 623 628 q 572 888 623 834 q 435 943 521 943 q 380 934 399 943 q 376 784 377 922 q 376 601 376 646 "},"…":{"x_min":150.09375,"x_max":1233.328125,"ha":1389,"o":"m 770 1 l 618 -27 l 612 110 l 765 138 l 770 1 m 1233 1 l 1081 -27 l 1075 110 l 1228 138 l 1233 1 m 308 1 l 156 -27 l 150 110 l 303 138 l 308 1 "},"?":{"x_min":129,"x_max":740,"ha":847,"o":"m 387 231 l 329 218 q 313 327 324 263 q 295 437 298 419 q 355 463 324 449 q 456 527 401 486 q 551 645 526 580 q 568 751 568 688 q 524 878 568 822 q 384 947 473 947 q 258 912 313 947 q 191 847 216 885 q 160 716 176 808 l 129 706 q 147 920 140 793 q 154 1128 154 1047 l 186 1116 q 192 964 186 1034 q 293 987 242 980 q 392 994 344 994 q 659 934 567 994 q 740 795 740 881 q 683 640 740 713 q 573 537 646 592 q 501 492 547 517 q 437 454 456 466 q 406 329 426 430 q 387 231 392 262 m 450 -2 l 288 -22 l 287 110 l 441 133 l 450 -2 "},"H":{"x_min":66,"x_max":1278.65625,"ha":1346,"o":"m 226 447 l 226 578 l 226 604 l 226 640 l 226 678 l 226 714 l 226 747 l 226 776 l 226 801 l 226 823 l 226 841 l 226 857 q 219 929 226 914 q 148 940 205 932 q 72 948 91 948 l 66 978 q 152 973 85 975 q 310 972 220 972 q 448 973 381 972 q 537 977 516 975 l 530 948 q 462 942 499 948 q 395 929 425 936 q 387 778 390 901 q 384 608 384 655 l 384 540 l 698 538 l 742 538 l 781 538 l 813 538 l 840 538 l 862 538 l 880 538 q 926 539 905 538 q 961 544 948 540 l 961 608 l 961 651 l 961 693 q 960 823 961 747 q 952 929 959 898 q 886 941 935 933 q 814 948 837 948 l 807 978 q 893 973 827 975 q 1046 972 959 972 q 1187 973 1121 972 q 1278 977 1253 975 l 1270 948 l 1128 929 q 1121 767 1124 913 q 1119 578 1119 621 l 1119 480 q 1121 182 1119 282 q 1131 43 1123 82 q 1201 32 1146 40 q 1271 24 1256 24 l 1278 -6 q 1189 -1 1257 -3 q 1045 0 1121 0 l 808 -5 l 814 23 q 878 29 834 23 q 952 42 923 35 q 959 232 958 73 q 961 413 961 391 l 961 494 q 654 480 905 494 q 384 462 403 466 l 384 413 q 386 188 384 285 q 395 42 389 91 q 464 30 418 37 q 530 23 510 23 l 537 -6 q 456 -2 528 -4 q 310 0 384 0 q 177 -2 270 0 q 66 -5 84 -5 l 74 23 q 143 29 100 23 q 219 43 185 36 q 223 227 223 87 q 226 447 224 368 "},"î":{"x_min":66,"x_max":544,"ha":611,"o":"m 384 569 l 384 483 q 385 197 384 333 q 390 42 386 62 q 445 33 400 39 q 537 23 489 27 l 544 -6 q 446 -1 518 -3 q 282 0 373 0 q 195 -1 254 0 q 66 -5 135 -2 l 71 24 q 136 30 92 24 q 219 43 181 36 q 224 286 223 83 q 226 495 226 489 l 226 577 l 226 603 l 226 639 l 226 677 l 226 713 l 226 746 l 226 775 l 226 800 l 226 822 l 226 840 l 226 855 q 219 929 226 911 q 160 937 212 930 q 73 948 109 943 l 66 978 q 156 973 88 975 q 329 972 224 972 q 456 973 391 972 q 543 977 521 975 l 536 948 l 390 929 q 385 817 386 911 q 384 569 384 724 m 148 1071 l 121 1103 q 213 1191 139 1120 q 298 1274 287 1261 q 403 1179 370 1208 q 488 1105 471 1119 l 462 1071 l 295 1164 q 219 1119 271 1153 q 148 1071 166 1085 "},"c":{"x_min":76,"x_max":1088.5,"ha":1124,"o":"m 1030 658 l 998 668 q 995 729 998 688 q 989 783 992 770 q 880 886 966 838 q 655 945 777 945 q 356 829 469 945 q 243 545 243 713 q 392 193 243 340 q 759 46 542 46 q 934 62 849 46 q 1088 121 1019 79 l 1069 61 q 944 9 1037 34 q 678 -22 823 -22 q 544 -12 612 -22 q 363 39 437 2 q 152 218 228 105 q 76 463 76 330 q 139 712 76 599 q 296 880 196 813 q 503 973 396 946 q 709 994 588 994 q 874 981 789 994 q 999 957 959 969 q 1010 1002 1002 964 q 1028 1082 1018 1040 l 1060 1089 q 1030 658 1030 864 "},"•":{"x_min":143.0625,"x_max":398.609375,"ha":542,"o":"m 143 573 l 350 637 l 398 430 l 180 360 l 143 573 "},"¥":{"x_min":-25,"x_max":831,"ha":778,"o":"m 668 311 l 652 260 l 468 260 l 468 229 q 468 127 468 182 q 474 44 469 71 l 599 23 l 602 -6 q 518 -1 577 -3 q 403 0 459 0 l 214 -5 l 223 23 q 276 31 241 25 q 337 44 312 37 q 342 135 341 57 q 344 232 344 214 l 344 260 q 217 253 338 260 q 127 250 169 250 l 142 302 l 344 302 l 344 378 q 249 372 323 378 q 134 367 175 367 l 149 420 l 344 420 l 344 443 q 273 572 307 507 q 152 787 208 692 q 59 936 83 907 q -20 947 23 943 l -25 978 q 43 975 -13 978 q 140 972 100 972 q 337 978 290 972 l 329 947 l 222 936 q 329 720 269 837 q 441 511 409 562 q 551 722 484 586 q 640 936 640 902 l 526 947 l 519 977 q 578 973 533 975 q 693 972 623 972 q 753 972 721 972 q 831 978 785 973 l 828 947 l 748 936 q 612 722 729 925 q 468 456 495 519 l 468 420 q 574 425 490 420 q 687 431 659 431 l 670 378 l 468 378 l 468 302 q 560 306 483 302 q 668 311 637 311 "},"(":{"x_min":105,"x_max":428.171875,"ha":486,"o":"m 411 -175 l 351 -185 q 207 1 275 -118 q 105 359 105 180 q 163 699 105 531 q 364 1080 222 868 l 428 1089 q 349 950 385 1026 q 270 729 299 844 q 234 444 234 587 q 299 34 234 212 q 411 -175 338 -72 "},"U":{"x_min":61,"x_max":1137.390625,"ha":1190,"o":"m 182 398 l 182 615 q 180 814 182 734 q 175 929 179 894 q 131 937 169 930 q 65 948 92 944 l 61 978 q 152 975 72 978 q 295 972 233 972 q 409 975 331 972 q 501 978 487 978 l 494 948 q 423 940 469 946 q 349 929 377 934 q 344 779 345 904 q 343 610 343 654 l 343 425 q 423 118 343 218 q 617 31 494 31 q 817 97 747 31 q 891 233 872 149 q 911 457 911 318 l 911 585 l 911 610 l 911 644 l 911 682 l 911 718 l 911 749 l 911 779 l 911 804 l 911 825 l 911 843 q 904 929 911 911 q 827 941 883 933 q 752 948 772 948 l 742 978 q 836 975 754 978 q 967 972 917 972 q 1137 978 1090 972 l 1129 948 l 1031 929 q 1027 841 1029 914 q 1025 697 1025 768 l 1025 630 l 1025 459 q 997 244 1025 332 q 889 75 965 141 q 768 3 838 29 q 600 -22 698 -22 q 284 97 393 -22 q 182 398 182 208 "},"Ñ":{"x_min":54.5625,"x_max":1211.5,"ha":1261,"o":"m 60 943 l 54 972 q 160 974 96 972 q 371 982 321 982 q 465 856 387 956 q 612 670 553 744 q 704 559 687 576 q 900 330 822 420 q 1005 215 983 233 q 999 714 1005 538 q 976 929 992 890 q 907 941 955 933 q 836 949 858 949 l 829 977 q 917 974 849 976 q 1036 972 985 972 q 1126 973 1069 972 q 1211 978 1183 975 l 1205 949 l 1100 929 q 1081 791 1089 894 q 1074 634 1074 687 q 1064 263 1074 555 q 1050 -69 1055 -29 q 921 74 1036 -55 q 717 310 818 192 q 592 454 649 390 l 262 850 l 262 815 q 271 359 262 644 q 293 43 280 75 q 367 31 305 38 q 444 23 380 30 l 449 -5 q 364 -2 430 -4 q 243 0 297 0 l 54 -5 l 58 23 q 123 31 94 27 q 174 43 151 36 q 194 287 185 69 q 205 644 199 386 q 212 926 212 902 q 142 937 185 931 q 60 943 100 943 m 855 1211 l 894 1202 q 852 1129 881 1165 q 786 1085 816 1085 q 738 1093 766 1085 q 678 1116 711 1102 q 617 1138 645 1129 q 572 1147 588 1147 q 522 1133 541 1147 q 490 1097 504 1120 l 451 1105 q 492 1181 463 1141 q 558 1233 530 1233 q 611 1220 579 1233 q 656 1202 642 1208 q 722 1179 690 1190 q 780 1168 755 1168 q 825 1177 809 1168 q 855 1211 841 1187 "},"F":{"x_min":66,"x_max":799.328125,"ha":883,"o":"m 226 455 l 226 541 q 224 820 226 751 q 219 929 223 890 q 150 940 209 933 q 71 948 92 947 l 66 977 l 309 972 l 343 972 l 391 972 q 666 973 604 972 q 749 980 728 974 l 767 1079 l 799 1086 q 784 929 792 1045 q 776 743 776 813 l 744 755 q 742 811 744 781 q 737 864 741 841 q 588 912 705 895 q 395 930 471 930 q 386 781 389 913 q 384 558 384 649 l 384 528 q 551 532 457 528 q 677 547 645 537 q 685 580 678 551 q 696 629 692 609 l 725 633 q 710 479 717 570 q 704 323 704 387 l 675 332 q 674 370 675 351 q 668 450 673 389 q 552 475 645 466 q 384 485 459 485 l 384 443 q 386 203 384 336 q 395 42 389 70 q 478 30 424 37 q 547 23 507 27 l 553 -6 q 437 -3 522 -6 q 297 0 352 -1 q 194 -1 254 0 q 66 -6 134 -3 l 71 23 q 148 30 107 25 q 219 42 188 34 q 224 237 223 75 q 226 455 226 398 "},":":{"x_min":138.890625,"x_max":307.046875,"ha":444,"o":"m 307 8 l 143 -21 l 138 126 l 300 156 l 307 8 m 307 416 l 143 386 l 138 534 l 300 564 l 307 416 "},"Û":{"x_min":61,"x_max":1137.390625,"ha":1190,"o":"m 182 398 l 182 615 q 180 814 182 734 q 175 929 179 894 q 131 937 169 930 q 65 948 92 944 l 61 978 q 152 975 72 978 q 295 972 233 972 q 409 975 331 972 q 501 978 487 978 l 494 948 q 423 940 469 946 q 349 929 377 934 q 344 779 345 904 q 343 610 343 654 l 343 425 q 423 118 343 218 q 617 31 494 31 q 817 97 747 31 q 891 233 872 149 q 911 457 911 318 l 911 585 l 911 610 l 911 644 l 911 682 l 911 718 l 911 749 l 911 779 l 911 804 l 911 825 l 911 843 q 904 929 911 911 q 827 941 883 933 q 752 948 772 948 l 742 978 q 836 975 754 978 q 967 972 917 972 q 1137 978 1090 972 l 1129 948 l 1031 929 q 1027 841 1029 914 q 1025 697 1025 768 l 1025 630 l 1025 459 q 997 244 1025 332 q 889 75 965 141 q 768 3 838 29 q 600 -22 698 -22 q 284 97 393 -22 q 182 398 182 208 m 479 1071 l 452 1103 q 544 1191 470 1120 q 629 1274 618 1261 q 734 1179 701 1208 q 819 1105 802 1119 l 793 1071 l 626 1164 q 550 1119 602 1153 q 479 1071 497 1085 "},"*":{"x_min":93,"x_max":477,"ha":569,"o":"m 457 744 l 356 640 q 327 724 343 685 q 286 821 318 748 q 254 640 267 764 l 121 706 q 271 832 229 792 q 178 828 254 832 q 93 825 102 825 l 133 960 q 211 890 173 921 q 275 845 250 860 q 247 924 265 878 q 211 1018 229 969 l 350 1032 q 309 899 334 972 q 293 847 294 856 l 293 845 q 347 900 325 876 q 410 970 387 943 l 477 847 q 385 842 445 847 q 299 832 325 837 q 389 780 319 816 q 457 744 433 756 "},"V":{"x_min":-43.0625,"x_max":1112.5,"ha":1038,"o":"m -37 948 l -43 978 q 47 975 -18 978 q 156 972 112 973 q 297 973 229 972 q 397 978 366 975 l 390 948 q 308 939 338 943 q 259 929 277 936 q 337 729 265 902 q 480 395 416 538 q 577 197 558 220 q 665 381 597 237 q 802 687 758 580 q 888 929 876 863 l 761 948 l 754 977 q 823 973 770 975 q 956 972 876 972 q 1047 975 994 972 q 1112 978 1100 978 l 1105 948 l 1020 929 q 883 675 1009 922 q 651 210 772 457 q 520 -60 530 -37 q 394 208 505 -34 q 191 647 255 511 q 48 929 77 887 q 26 934 34 933 q -37 948 -15 946 "},"å":{"x_min":-76,"x_max":1051,"ha":989,"o":"m 585 -6 l 592 23 q 683 31 672 30 q 733 42 717 39 q 659 257 695 149 q 587 449 602 422 q 420 442 537 449 q 266 430 304 436 q 236 328 261 417 q 169 42 180 127 q 217 33 180 40 q 289 23 254 27 l 294 -5 l 85 0 l -76 -6 l -71 23 q 47 42 -12 28 q 154 299 68 78 q 305 695 226 485 q 393 930 362 847 q 340 940 380 934 q 283 948 299 947 l 281 978 l 462 972 q 560 973 495 972 q 699 977 624 974 l 695 948 q 651 943 674 945 q 590 930 628 940 q 648 750 605 875 q 735 505 669 690 q 820 280 783 377 q 924 43 881 126 q 986 31 957 36 q 1046 23 1014 27 l 1051 -5 q 977 -2 1045 -4 q 820 0 909 0 q 702 -3 799 0 q 585 -6 605 -6 m 577 491 q 503 703 531 621 q 436 907 454 848 q 350 673 379 753 q 286 496 293 517 l 577 491 m 474 1074 q 373 1097 413 1074 q 334 1164 334 1121 q 388 1251 334 1214 q 502 1288 442 1288 q 617 1263 579 1288 q 655 1199 655 1239 q 604 1114 655 1155 q 474 1074 554 1074 m 412 1187 q 439 1125 412 1149 q 499 1102 466 1102 q 551 1122 529 1102 q 573 1175 573 1142 q 550 1234 573 1208 q 489 1260 528 1260 q 436 1239 461 1260 q 412 1187 412 1218 "}," ":{"x_min":0,"x_max":0,"ha":694},"0":{"x_min":76,"x_max":862,"ha":939,"o":"m 456 -22 q 323 1 387 -22 q 180 103 235 34 q 101 260 126 172 q 76 454 76 348 q 192 838 76 683 q 480 994 309 994 q 645 958 574 994 q 766 856 716 923 q 839 704 816 789 q 862 519 862 619 q 743 134 862 291 q 456 -22 625 -22 m 705 441 q 652 763 705 626 q 452 941 584 941 q 281 803 341 941 q 233 530 233 689 q 285 208 233 345 q 485 31 353 31 q 656 169 596 31 q 705 441 705 283 "},"”":{"x_min":72,"x_max":415,"ha":486,"o":"m 109 688 l 72 688 q 128 1045 128 870 l 247 1000 q 177 847 212 925 q 109 688 133 747 m 277 688 l 240 688 q 281 867 266 773 q 296 1045 296 961 l 415 1000 q 345 847 380 925 q 277 688 301 747 "},"ö":{"x_min":76,"x_max":1239,"ha":1315,"o":"m 638 -22 q 420 5 512 -22 q 209 133 298 43 q 105 288 135 208 q 76 469 76 368 q 237 834 76 684 q 685 994 409 994 q 894 969 805 994 q 1070 881 983 945 q 1194 730 1150 823 q 1239 537 1239 637 q 1069 132 1239 286 q 638 -22 899 -22 m 707 35 q 963 152 857 35 q 1070 435 1070 269 q 940 796 1070 652 q 634 941 811 941 q 363 842 475 941 q 236 527 236 728 q 369 187 236 334 q 707 35 508 35 m 422 1137 l 489 1246 l 596 1173 l 526 1066 l 422 1137 m 719 1139 l 787 1246 l 893 1173 l 822 1066 l 719 1139 "},"i":{"x_min":66,"x_max":544,"ha":611,"o":"m 384 569 l 384 483 q 385 197 384 333 q 390 42 386 62 q 445 33 400 39 q 537 23 489 27 l 544 -6 q 446 -1 518 -3 q 282 0 373 0 q 195 -1 254 0 q 66 -5 135 -2 l 71 24 q 136 30 92 24 q 219 43 181 36 q 224 286 223 83 q 226 494 226 488 l 226 576 l 226 602 l 226 638 l 226 677 l 226 713 l 226 746 l 226 775 l 226 800 l 226 822 l 226 840 l 226 855 q 219 929 226 911 q 160 936 212 930 q 73 948 109 943 l 66 977 q 156 973 88 975 q 329 972 224 972 q 456 973 391 972 q 543 977 521 975 l 536 948 l 390 929 q 385 817 386 911 q 384 569 384 724 m 203 1146 l 284 1256 l 402 1172 l 320 1067 l 203 1146 "},"Õ":{"x_min":76,"x_max":1239,"ha":1315,"o":"m 638 -22 q 420 5 512 -22 q 209 133 298 43 q 105 288 135 208 q 76 469 76 368 q 237 834 76 684 q 685 994 409 994 q 894 969 805 994 q 1070 881 983 945 q 1194 730 1150 823 q 1239 537 1239 637 q 1069 132 1239 286 q 638 -22 899 -22 m 707 35 q 963 152 857 35 q 1070 435 1070 269 q 940 796 1070 652 q 634 941 811 941 q 363 842 475 941 q 236 527 236 728 q 369 187 236 334 q 707 35 508 35 m 840 1211 l 879 1202 q 837 1129 866 1165 q 771 1085 801 1085 q 723 1093 751 1085 q 663 1116 696 1102 q 602 1138 630 1129 q 557 1147 573 1147 q 507 1133 526 1147 q 475 1097 489 1120 l 436 1105 q 477 1181 448 1141 q 543 1233 515 1233 q 596 1220 564 1233 q 641 1202 627 1208 q 707 1179 675 1190 q 765 1168 740 1168 q 810 1177 794 1168 q 840 1211 826 1187 "},"þ":{"x_min":87,"x_max":682,"ha":767,"o":"m 372 -21 l 303 -105 q 394 -149 362 -122 q 426 -217 426 -176 q 336 -328 426 -288 q 165 -362 259 -362 l 178 -318 q 282 -295 247 -318 q 318 -234 318 -272 q 292 -175 318 -201 q 209 -134 266 -150 l 302 -21 q 218 -11 258 -21 q 149 13 178 -2 l 118 -131 l 87 -140 q 94 -74 90 -112 q 108 87 108 44 q 110 172 108 108 q 114 277 112 237 q 114 306 114 300 l 145 298 q 147 238 145 277 q 154 176 150 200 q 241 66 183 108 q 369 25 299 25 q 510 73 453 25 q 567 199 567 122 q 486 358 567 290 q 388 426 459 380 q 185 601 233 527 q 144 749 144 666 q 209 912 144 844 q 430 994 288 994 q 543 985 490 994 q 618 969 565 983 q 629 1018 622 986 q 643 1081 636 1049 l 674 1086 q 650 883 659 981 q 642 705 642 784 l 610 719 q 608 774 610 754 q 604 825 607 794 q 543 905 590 868 q 419 950 486 950 q 290 904 337 950 q 250 811 250 865 q 340 677 250 743 q 450 605 373 654 q 638 441 591 516 q 682 280 682 372 q 593 63 682 147 q 372 -21 504 -21 "},"]":{"x_min":54.5625,"x_max":353.171875,"ha":486,"o":"m 230 500 l 230 611 l 230 642 q 227 893 230 781 q 220 1031 225 1005 l 61 1046 l 54 1083 l 353 1073 q 349 892 351 1059 q 348 605 348 725 l 348 500 q 348 92 348 308 q 353 -166 349 -122 l 64 -176 l 54 -139 l 220 -118 q 228 98 227 -91 q 230 323 230 288 l 230 500 "},"m":{"x_min":-1,"x_max":1461.5,"ha":1472,"o":"m 1008 -5 l 1011 23 l 1164 40 q 1132 242 1164 65 q 1068 583 1126 274 q 1023 821 1025 808 l 1018 821 q 919 585 1003 786 q 766 219 843 403 q 665 -10 689 35 q 571 230 654 12 q 430 600 498 419 q 348 821 353 805 l 343 821 q 273 419 308 619 q 230 43 230 154 l 354 23 l 360 -5 q 275 -2 346 -4 q 153 0 204 0 l -1 -5 l 8 23 q 61 31 46 29 q 107 41 76 33 q 167 281 121 80 q 254 666 214 481 q 310 929 301 881 l 172 948 l 164 978 q 246 974 172 976 q 364 972 321 972 q 475 974 396 972 q 572 977 554 977 l 567 948 q 503 938 532 944 q 463 929 475 931 q 587 579 490 840 q 715 243 679 332 q 805 448 733 277 q 930 750 864 584 q 999 929 997 916 q 950 940 979 936 q 904 948 921 945 l 897 978 l 1085 972 q 1187 973 1128 972 q 1278 977 1246 974 l 1274 948 q 1212 939 1237 943 q 1157 929 1187 936 q 1209 650 1173 831 q 1287 277 1216 612 q 1339 43 1329 77 q 1390 33 1354 38 q 1454 23 1426 27 l 1461 -5 q 1356 -2 1436 -5 q 1265 0 1276 0 q 1128 -2 1207 0 q 1008 -5 1050 -4 "},"8":{"x_min":76,"x_max":768,"ha":854,"o":"m 401 -22 q 152 57 241 -22 q 76 214 76 125 q 162 404 76 319 q 318 508 220 461 q 153 636 196 572 q 120 758 120 684 q 200 912 120 842 q 453 994 296 994 q 674 927 601 994 q 732 801 732 876 q 680 666 732 727 q 510 552 625 600 q 718 409 654 490 q 768 271 768 347 q 663 60 768 143 q 401 -22 559 -22 m 430 28 q 564 77 511 28 q 618 207 618 126 q 573 340 618 286 q 355 482 513 412 q 265 388 294 434 q 225 243 225 326 q 284 86 225 144 q 430 28 344 28 m 457 578 q 549 651 515 604 q 590 777 590 705 q 531 909 590 864 q 420 945 484 945 q 298 903 344 945 q 253 798 253 861 q 318 661 253 719 q 457 578 359 626 "},"ž":{"x_min":37,"x_max":937,"ha":997,"o":"m 905 306 l 937 315 q 885 15 910 163 q 861 -160 861 -132 l 829 -150 l 835 -16 q 684 -4 823 -9 q 416 0 546 0 l 37 -8 q 231 245 67 23 q 530 659 374 440 q 708 915 687 877 q 409 897 602 915 q 188 855 216 880 q 164 776 182 840 q 138 694 145 712 l 106 690 q 138 909 125 775 q 151 1106 151 1044 l 183 1099 l 187 969 q 348 962 205 967 q 538 957 491 957 q 742 960 560 957 q 936 964 924 964 q 747 710 905 926 q 460 316 583 486 q 272 50 303 98 q 596 65 446 50 q 846 126 798 86 q 868 184 853 134 q 905 306 884 234 m 670 1274 l 695 1240 q 580 1130 689 1235 q 520 1071 537 1089 q 444 1137 488 1096 q 330 1240 387 1189 l 356 1274 q 435 1228 363 1268 q 523 1181 507 1187 q 600 1226 545 1190 q 670 1274 655 1263 "},"R":{"x_min":65,"x_max":1064,"ha":1039,"o":"m 225 501 l 225 586 l 225 614 l 225 651 l 225 690 l 225 726 l 225 759 l 225 788 l 225 813 l 225 834 l 225 851 q 218 928 225 917 q 148 937 201 932 q 69 945 95 942 l 65 974 l 365 976 q 602 969 515 976 q 756 937 690 963 q 844 875 813 914 q 876 778 876 835 q 819 637 876 712 q 680 516 762 562 q 753 393 690 494 q 902 169 833 268 q 1064 -34 998 35 l 1002 -44 q 839 97 958 -24 q 629 322 743 194 q 514 455 535 429 l 381 447 l 381 411 q 383 236 381 343 q 388 43 385 130 q 449 32 401 38 q 533 23 497 26 l 538 -5 q 430 -2 524 -5 q 299 0 335 0 q 169 -1 244 0 q 65 -5 95 -2 l 70 24 q 140 30 91 24 q 218 43 188 36 q 223 281 222 71 q 225 501 225 491 m 381 533 l 381 490 q 467 495 429 490 q 550 516 505 500 q 673 613 630 547 q 708 740 708 668 q 638 872 708 819 q 388 937 552 937 q 384 716 388 891 q 381 533 381 541 "},"á":{"x_min":-76,"x_max":1051,"ha":989,"o":"m 585 -6 l 592 23 q 683 31 672 30 q 733 42 717 39 q 659 257 695 149 q 587 449 602 422 q 420 442 537 449 q 266 430 304 436 q 236 328 261 417 q 169 42 180 127 q 217 33 180 40 q 289 23 254 27 l 294 -5 l 85 0 l -76 -6 l -71 23 q 47 42 -12 28 q 154 299 68 78 q 305 695 226 485 q 393 930 362 847 q 340 940 380 934 q 283 948 299 947 l 281 978 l 462 972 q 560 973 495 972 q 699 977 624 974 l 695 948 q 651 943 674 945 q 590 930 628 940 q 648 750 605 875 q 735 505 669 690 q 820 280 783 377 q 924 43 881 126 q 986 31 957 36 q 1046 23 1014 27 l 1051 -5 q 977 -2 1045 -4 q 820 0 909 0 q 702 -3 799 0 q 585 -6 605 -6 m 577 491 q 503 703 531 621 q 436 907 454 848 q 350 673 379 753 q 286 496 293 517 l 577 491 m 689 1286 l 742 1179 q 584 1129 720 1180 q 431 1066 467 1084 l 414 1111 q 539 1187 424 1112 q 689 1286 646 1257 "},"o":{"x_min":76,"x_max":1239,"ha":1315,"o":"m 638 -22 q 420 5 512 -22 q 209 133 298 43 q 105 288 135 208 q 76 469 76 368 q 237 834 76 684 q 685 994 409 994 q 894 969 805 994 q 1070 881 983 945 q 1194 730 1150 823 q 1239 537 1239 637 q 1069 132 1239 286 q 638 -22 899 -22 m 707 35 q 963 152 857 35 q 1070 435 1070 269 q 940 796 1070 652 q 634 941 811 941 q 363 842 475 941 q 236 527 236 728 q 369 187 236 334 q 707 35 508 35 "},"5":{"x_min":55,"x_max":688,"ha":800,"o":"m 652 1070 l 684 1075 q 652 924 668 1005 q 637 723 637 843 l 605 733 l 605 849 q 518 859 571 856 q 365 862 464 862 l 221 862 l 195 693 q 424 643 349 669 q 548 581 485 622 q 649 483 611 541 q 688 361 688 425 q 560 93 688 209 q 253 -22 433 -22 q 170 -19 208 -22 q 103 -8 132 -16 l 85 -66 l 55 -72 q 70 77 64 -15 q 77 246 77 171 l 109 233 q 109 177 109 205 q 114 111 110 148 q 184 52 140 74 q 289 31 228 31 q 454 90 385 31 q 534 276 534 158 q 488 414 534 350 q 413 486 459 455 q 307 540 368 518 q 134 584 236 566 l 174 972 l 368 972 q 554 978 499 972 q 629 995 609 985 l 652 1070 "},"İ":{"x_min":66,"x_max":544,"ha":611,"o":"m 384 569 l 384 483 q 385 197 384 333 q 390 42 386 62 q 445 33 400 39 q 537 23 489 27 l 544 -6 q 446 -1 518 -3 q 282 0 373 0 q 195 -1 254 0 q 66 -5 135 -2 l 71 24 q 136 30 92 24 q 219 43 181 36 q 224 286 223 83 q 226 494 226 488 l 226 576 l 226 602 l 226 638 l 226 677 l 226 713 l 226 746 l 226 775 l 226 800 l 226 822 l 226 840 l 226 855 q 219 929 226 911 q 160 936 212 930 q 73 948 109 943 l 66 977 q 156 973 88 975 q 329 972 224 972 q 456 973 391 972 q 543 977 521 975 l 536 948 l 390 929 q 385 817 386 911 q 384 569 384 724 m 203 1146 l 284 1256 l 402 1172 l 320 1067 l 203 1146 "},"õ":{"x_min":76,"x_max":1239,"ha":1315,"o":"m 638 -22 q 420 5 512 -22 q 209 133 298 43 q 105 288 135 208 q 76 469 76 368 q 237 834 76 684 q 685 994 409 994 q 894 969 805 994 q 1070 881 983 945 q 1194 730 1150 823 q 1239 537 1239 637 q 1069 132 1239 286 q 638 -22 899 -22 m 707 35 q 963 152 857 35 q 1070 435 1070 269 q 940 796 1070 652 q 634 941 811 941 q 363 842 475 941 q 236 527 236 728 q 369 187 236 334 q 707 35 508 35 m 840 1211 l 879 1202 q 837 1129 866 1165 q 771 1085 801 1085 q 723 1093 751 1085 q 663 1116 696 1102 q 602 1138 630 1129 q 557 1147 573 1147 q 507 1133 526 1147 q 475 1097 489 1120 l 436 1105 q 477 1181 448 1141 q 543 1233 515 1233 q 596 1220 564 1233 q 641 1202 627 1208 q 707 1179 675 1190 q 765 1168 740 1168 q 810 1177 794 1168 q 840 1211 826 1187 "},"7":{"x_min":68,"x_max":747.15625,"ha":744,"o":"m 506 23 l 512 -6 q 408 -3 490 -6 q 284 0 326 0 l 77 -6 l 86 23 q 166 32 140 28 q 212 43 193 37 q 301 242 230 93 q 427 493 368 381 l 615 848 l 462 848 q 213 842 272 848 q 134 824 154 836 q 122 785 129 810 q 101 693 116 759 l 68 681 q 96 902 86 816 q 106 1075 106 988 l 138 1068 l 142 983 q 230 974 161 977 q 445 972 298 972 l 747 972 q 688 847 736 945 q 599 661 680 829 q 509 464 536 528 q 368 43 380 154 l 506 23 "},"K":{"x_min":65.671875,"x_max":1133.71875,"ha":1111,"o":"m 225 488 l 225 567 q 223 797 225 699 q 218 929 222 895 l 69 948 l 65 978 q 153 974 74 976 q 310 972 232 972 q 437 973 361 972 q 537 977 512 975 l 532 948 l 389 929 q 384 729 385 898 q 383 555 383 560 l 383 512 q 529 639 455 575 q 715 806 669 763 q 829 929 810 895 q 790 938 819 932 q 726 948 761 944 l 721 978 l 932 972 l 1083 977 l 1075 948 q 1026 941 1042 944 q 983 931 1010 938 q 794 788 944 911 q 607 630 667 684 q 753 434 632 590 q 976 155 875 277 q 1133 -24 1097 8 l 1086 -40 q 887 114 1036 -20 q 623 366 773 216 q 470 522 515 473 q 424 485 449 506 q 383 449 399 465 l 383 416 q 384 199 383 313 q 389 49 385 85 q 475 32 412 39 q 548 23 539 24 l 551 -5 q 458 -1 530 -2 q 303 0 386 0 q 175 -3 267 0 q 65 -6 83 -6 l 71 23 q 142 28 101 23 q 218 42 182 34 q 221 247 218 78 q 225 488 225 416 "},",":{"x_min":139,"x_max":303,"ha":444,"o":"m 250 -243 l 208 -249 q 232 -102 232 -161 q 212 -19 232 -54 l 141 -22 l 139 122 l 303 138 l 303 90 q 296 -72 303 -17 q 250 -243 284 -155 "},"d":{"x_min":66,"x_max":1235,"ha":1306,"o":"m 226 473 l 226 583 q 223 799 226 693 q 216 929 221 905 q 133 943 174 937 q 68 949 92 949 l 66 978 q 152 973 81 975 q 295 972 222 972 q 432 975 311 972 q 615 978 553 978 q 840 961 740 978 q 1007 913 940 945 q 1182 763 1123 858 q 1235 576 1235 678 q 1053 175 1235 334 q 471 -6 846 -6 l 66 -6 l 71 20 q 143 26 98 20 q 216 39 189 32 q 223 202 220 53 q 226 473 226 350 m 384 516 l 384 462 q 386 256 384 400 q 393 76 389 112 q 472 55 432 60 q 544 51 511 51 q 904 165 758 51 q 1064 502 1064 290 q 1032 675 1064 600 q 912 824 994 762 q 733 901 843 875 q 515 927 624 927 q 448 924 478 927 q 393 918 418 922 q 388 744 392 911 q 384 516 384 576 "},"¨":{"x_min":401.390625,"x_max":872.21875,"ha":1274,"o":"m 401 1137 l 468 1246 l 575 1173 l 505 1066 l 401 1137 m 698 1139 l 766 1246 l 872 1173 l 801 1066 l 698 1139 "},"E":{"x_min":66,"x_max":789.609375,"ha":885,"o":"m 226 476 l 226 540 q 223 766 226 634 q 216 929 220 897 q 172 935 209 930 q 71 948 135 940 l 66 977 l 313 972 l 342 972 l 384 972 q 606 974 516 972 q 721 981 696 976 l 732 1047 l 764 1053 q 748 913 759 1027 q 737 764 737 799 l 706 774 l 706 874 q 581 917 689 901 q 393 933 472 933 q 388 769 392 926 q 384 563 384 612 l 384 536 q 564 541 485 536 q 671 558 644 547 q 685 617 681 586 l 715 620 l 678 361 l 652 372 l 654 465 q 552 488 624 480 q 384 496 479 496 l 384 468 q 386 224 384 375 q 393 40 389 74 q 595 50 509 40 q 727 87 681 60 q 741 140 734 106 q 757 209 749 173 l 789 218 q 761 60 779 177 q 744 -102 744 -56 l 715 -96 l 715 -12 q 519 -4 692 -8 q 277 0 345 0 l 66 -5 l 72 24 q 141 30 95 24 q 216 43 187 36 q 223 200 220 60 q 226 476 226 340 "},"Y":{"x_min":-48,"x_max":996,"ha":908,"o":"m 398 305 l 398 350 l 398 368 q 393 441 398 400 q 243 679 384 473 q 54 929 103 884 q 13 939 43 934 q -42 948 -16 944 l -48 978 q 193 972 0 972 q 311 973 257 972 q 385 977 365 975 l 378 948 q 321 940 375 948 q 258 929 287 936 q 354 772 294 863 q 454 618 404 693 q 525 508 515 525 q 653 712 596 619 q 765 929 765 895 l 657 948 l 653 978 q 714 973 671 975 q 828 972 757 972 q 903 972 864 972 q 996 977 943 973 l 991 948 q 939 939 955 943 q 903 930 923 936 q 800 814 883 924 q 650 601 718 704 q 561 452 571 481 q 557 409 558 438 q 556 353 556 380 l 556 301 q 557 160 556 255 q 562 42 558 66 q 646 30 604 37 q 697 23 687 24 l 700 -6 q 610 -1 676 -3 q 452 0 545 0 l 261 -5 l 268 23 q 336 31 309 27 q 391 43 364 36 q 396 177 395 56 q 398 305 398 298 "},"Ô":{"x_min":76,"x_max":1239,"ha":1315,"o":"m 638 -22 q 420 5 512 -22 q 209 133 298 43 q 105 288 135 208 q 76 469 76 368 q 237 834 76 684 q 685 994 409 994 q 894 969 805 994 q 1070 881 983 945 q 1194 730 1150 823 q 1239 537 1239 637 q 1069 132 1239 286 q 638 -22 899 -22 m 707 35 q 963 152 857 35 q 1070 435 1070 269 q 940 796 1070 652 q 634 941 811 941 q 363 842 475 941 q 236 527 236 728 q 369 187 236 334 q 707 35 508 35 m 514 1071 l 487 1103 q 579 1191 505 1120 q 664 1274 653 1261 q 769 1179 736 1208 q 854 1105 837 1119 l 828 1071 l 661 1164 q 585 1119 637 1153 q 514 1071 532 1085 "},"‹":{"x_min":109,"x_max":389.28125,"ha":500,"o":"m 389 385 l 368 285 q 238 398 354 299 q 109 505 133 485 q 290 651 224 598 q 369 720 355 704 l 383 670 q 304 595 350 639 q 224 514 244 535 q 314 441 251 488 q 389 385 376 394 "},"˙":{"x_min":536.890625,"x_max":735.109375,"ha":1274,"o":"m 536 1146 l 617 1256 l 735 1172 l 653 1067 l 536 1146 "},"ê":{"x_min":66,"x_max":789.609375,"ha":885,"o":"m 226 476 l 226 540 q 223 766 226 634 q 216 929 220 897 q 172 935 209 930 q 71 948 135 940 l 66 977 l 191 972 l 313 972 l 342 972 l 384 972 q 606 974 516 972 q 721 981 696 976 l 732 1047 l 764 1053 q 748 913 759 1027 q 737 764 737 799 l 706 774 l 706 874 q 581 917 689 901 q 393 933 472 933 q 388 769 392 926 q 384 563 384 612 l 384 536 q 564 541 485 536 q 671 558 644 547 q 685 617 681 586 l 715 620 l 678 361 l 652 372 l 654 465 q 552 488 624 480 q 384 496 479 496 l 384 468 q 386 224 384 375 q 393 40 389 74 q 595 50 509 40 q 727 87 681 60 q 741 140 734 106 q 757 209 749 173 l 789 218 q 761 60 779 177 q 744 -102 744 -56 l 715 -96 l 715 -12 q 519 -4 692 -8 q 277 0 345 0 l 66 -5 l 72 24 q 141 30 95 24 q 216 43 187 36 q 223 200 220 60 q 226 476 226 340 m 285 1071 l 258 1103 q 350 1191 276 1120 q 435 1274 424 1261 q 540 1179 507 1208 q 625 1105 608 1119 l 599 1071 l 432 1164 q 356 1119 408 1153 q 285 1071 303 1085 "},"Ï":{"x_min":66,"x_max":544,"ha":611,"o":"m 384 569 l 384 483 q 385 197 384 333 q 390 42 386 62 q 445 33 400 39 q 537 23 489 27 l 544 -6 q 446 -1 518 -3 q 282 0 373 0 q 195 -1 254 0 q 66 -5 135 -2 l 71 24 q 136 30 92 24 q 219 43 181 36 q 224 286 223 83 q 226 495 226 489 l 226 577 l 226 603 l 226 639 l 226 677 l 226 713 l 226 746 l 226 775 l 226 800 l 226 822 l 226 840 l 226 855 q 219 929 226 911 q 160 937 212 930 q 73 948 109 943 l 66 978 q 156 973 88 975 q 329 972 224 972 q 456 973 391 972 q 543 977 521 975 l 536 948 l 390 929 q 385 817 386 911 q 384 569 384 724 m 70 1137 l 137 1246 l 244 1173 l 174 1066 l 70 1137 m 367 1139 l 435 1246 l 541 1173 l 470 1066 l 367 1139 "},"„":{"x_min":72,"x_max":415,"ha":486,"o":"m 109 -171 l 72 -171 q 113 8 98 -85 q 128 186 128 102 l 247 141 q 177 -11 212 66 q 109 -171 133 -111 m 277 -171 l 240 -171 q 281 8 266 -85 q 296 186 296 102 l 415 141 q 345 -11 380 66 q 277 -171 301 -111 "},"Â":{"x_min":-76,"x_max":1051,"ha":989,"o":"m 585 -6 l 592 23 q 683 31 672 30 q 733 42 717 39 q 659 257 695 149 q 587 449 602 422 q 420 442 537 449 q 266 430 304 436 q 236 328 261 417 q 169 42 180 127 q 217 33 180 40 q 289 23 254 27 l 294 -5 l 85 0 l -76 -6 l -71 23 q 47 42 -12 28 q 154 299 68 78 q 305 695 226 485 q 393 930 362 847 q 340 940 380 934 q 283 948 299 947 l 281 978 l 462 972 q 560 973 495 972 q 699 977 624 974 l 695 948 q 651 943 674 945 q 590 930 628 940 q 648 750 605 875 q 735 505 669 690 q 820 280 783 377 q 924 43 881 126 q 986 31 957 36 q 1046 23 1014 27 l 1051 -5 q 977 -2 1045 -4 q 820 0 909 0 q 702 -3 799 0 q 585 -6 605 -6 m 577 491 q 503 703 531 621 q 436 907 454 848 q 350 673 379 753 q 286 496 293 517 l 577 491 m 337 1071 l 310 1103 q 402 1191 328 1120 q 487 1274 476 1261 q 592 1179 559 1208 q 677 1105 660 1119 l 651 1071 l 484 1164 q 408 1119 460 1153 q 337 1071 355 1085 "},"´":{"x_min":556.9375,"x_max":884.71875,"ha":1274,"o":"m 831 1286 l 884 1179 q 726 1129 862 1180 q 573 1066 609 1084 l 556 1111 q 681 1187 566 1112 q 831 1286 788 1257 "},"Í":{"x_min":66,"x_max":553.71875,"ha":611,"o":"m 384 569 l 384 483 q 385 197 384 333 q 390 42 386 62 q 445 33 400 39 q 537 23 489 27 l 544 -6 q 446 -1 518 -3 q 282 0 373 0 q 195 -1 254 0 q 66 -5 135 -2 l 71 24 q 136 30 92 24 q 219 43 181 36 q 224 286 223 83 q 226 495 226 489 l 226 577 l 226 603 l 226 639 l 226 677 l 226 713 l 226 746 l 226 775 l 226 800 l 226 822 l 226 840 l 226 855 q 219 929 226 911 q 160 937 212 930 q 73 948 109 943 l 66 978 q 156 973 88 975 q 329 972 224 972 q 456 973 391 972 q 543 977 521 975 l 536 948 l 390 929 q 385 817 386 911 q 384 569 384 724 m 500 1286 l 553 1179 q 395 1129 531 1180 q 242 1066 278 1084 l 225 1111 q 350 1187 235 1112 q 500 1286 457 1257 "},"ì":{"x_min":57.890625,"x_max":544,"ha":611,"o":"m 384 569 l 384 483 q 385 197 384 333 q 390 42 386 62 q 445 33 400 39 q 537 23 489 27 l 544 -6 q 446 -1 518 -3 q 282 0 373 0 q 195 -1 254 0 q 66 -5 135 -2 l 71 24 q 136 30 92 24 q 219 43 181 36 q 224 286 223 83 q 226 495 226 489 l 226 577 l 226 603 l 226 639 l 226 677 l 226 713 l 226 746 l 226 775 l 226 800 l 226 822 l 226 840 l 226 855 q 219 929 226 911 q 160 937 212 930 q 73 948 109 943 l 66 978 q 156 973 88 975 q 329 972 224 972 q 456 973 391 972 q 543 977 521 975 l 536 948 l 390 929 q 385 817 386 911 q 384 569 384 724 m 57 1179 l 112 1286 q 261 1188 144 1264 q 387 1111 378 1112 l 370 1066 q 217 1127 337 1082 q 57 1179 77 1180 "},"Ú":{"x_min":61,"x_max":1137.390625,"ha":1190,"o":"m 182 398 l 182 615 q 180 814 182 734 q 175 929 179 894 q 131 937 169 930 q 65 948 92 944 l 61 978 q 152 975 72 978 q 295 972 233 972 q 409 975 331 972 q 501 978 487 978 l 494 948 q 423 940 469 946 q 349 929 377 934 q 344 779 345 904 q 343 610 343 654 l 343 425 q 423 118 343 218 q 617 31 494 31 q 817 97 747 31 q 891 233 872 149 q 911 457 911 318 l 911 585 l 911 610 l 911 644 l 911 682 l 911 718 l 911 749 l 911 779 l 911 804 l 911 825 l 911 843 q 904 929 911 911 q 827 941 883 933 q 752 948 772 948 l 742 978 q 836 975 754 978 q 967 972 917 972 q 1137 978 1090 972 l 1129 948 l 1031 929 q 1027 841 1029 914 q 1025 697 1025 768 l 1025 630 l 1025 459 q 997 244 1025 332 q 889 75 965 141 q 768 3 838 29 q 600 -22 698 -22 q 284 97 393 -22 q 182 398 182 208 m 831 1286 l 884 1179 q 726 1129 862 1180 q 573 1066 609 1084 l 556 1111 q 681 1187 566 1112 q 831 1286 788 1257 "},"Ý":{"x_min":66,"x_max":544,"ha":611,"o":"m 384 569 l 384 483 q 385 197 384 333 q 390 42 386 62 q 445 33 400 39 q 537 23 489 27 l 544 -6 q 446 -1 518 -3 q 282 0 373 0 q 195 -1 254 0 q 66 -5 135 -2 l 71 24 q 136 30 92 24 q 219 43 181 36 q 224 286 223 83 q 226 494 226 488 l 226 576 l 226 602 l 226 638 l 226 677 l 226 713 l 226 746 l 226 775 l 226 800 l 226 822 l 226 840 l 226 855 q 219 929 226 911 q 160 936 212 930 q 73 948 109 943 l 66 977 q 156 973 88 975 q 329 972 224 972 q 456 973 391 972 q 543 977 521 975 l 536 948 l 390 929 q 385 817 386 911 q 384 569 384 724 m 203 1146 l 284 1256 l 402 1172 l 320 1067 l 203 1146 "},"b":{"x_min":66,"x_max":847,"ha":949,"o":"m 226 467 l 226 555 q 223 759 226 631 q 216 929 220 887 q 72 943 136 943 l 66 972 q 188 974 103 972 q 464 983 440 983 q 721 917 643 983 q 777 802 777 870 q 771 736 777 760 q 740 672 765 712 q 649 577 707 619 q 561 527 606 547 q 756 437 675 505 q 847 255 847 359 q 758 62 847 136 q 523 -11 669 -11 l 406 -6 l 277 0 q 175 -3 263 0 q 66 -6 88 -6 l 71 23 q 159 31 124 27 q 216 42 194 35 q 224 285 223 107 q 226 467 226 462 m 376 484 l 376 408 q 381 196 376 316 q 392 62 387 76 q 453 38 417 44 q 503 33 488 33 q 644 79 598 33 q 691 202 691 126 q 650 342 691 272 q 539 449 609 413 q 466 474 507 465 q 394 484 425 484 q 376 484 381 484 m 376 601 l 376 524 q 455 532 419 524 q 542 570 506 544 q 623 744 623 628 q 572 888 623 834 q 435 943 521 943 q 380 934 399 943 q 376 784 377 922 q 376 601 376 646 "},"q":{"x_min":76,"x_max":1334.328125,"ha":1314,"o":"m 1334 -314 l 1302 -328 q 1034 -188 1242 -316 q 773 -11 835 -66 l 712 -18 l 631 -22 q 419 5 514 -22 q 207 126 292 41 q 110 278 145 188 q 76 472 76 367 q 228 830 76 683 q 680 994 398 994 q 923 959 816 994 q 1110 844 1030 924 q 1217 667 1187 770 q 1237 534 1237 603 q 1156 244 1237 373 q 951 51 1082 126 q 1149 -161 1003 -28 q 1334 -314 1274 -275 m 688 31 q 974 160 867 31 q 1073 462 1073 279 q 938 801 1073 659 q 623 943 803 943 q 351 836 460 943 q 232 523 232 719 q 370 186 232 341 q 688 31 509 31 "},"Ö":{"x_min":76,"x_max":1239,"ha":1315,"o":"m 638 -22 q 420 5 512 -22 q 209 133 298 43 q 105 288 135 208 q 76 469 76 368 q 237 834 76 684 q 685 994 409 994 q 894 969 805 994 q 1070 881 983 945 q 1194 730 1150 823 q 1239 537 1239 637 q 1069 132 1239 286 q 638 -22 899 -22 m 707 35 q 963 152 857 35 q 1070 435 1070 269 q 940 796 1070 652 q 634 941 811 941 q 363 842 475 941 q 236 527 236 728 q 369 187 236 334 q 707 35 508 35 m 422 1137 l 489 1246 l 596 1173 l 526 1066 l 422 1137 m 719 1139 l 787 1246 l 893 1173 l 822 1066 l 719 1139 "},"z":{"x_min":37,"x_max":937,"ha":997,"o":"m 905 306 l 937 315 q 885 15 910 163 q 861 -160 861 -132 l 829 -150 l 835 -16 q 684 -4 823 -9 q 416 0 546 0 l 37 -8 q 231 245 67 23 q 530 659 374 440 q 708 915 687 877 q 409 897 602 915 q 188 855 216 880 q 164 776 182 840 q 138 694 145 712 l 106 690 q 138 909 125 775 q 151 1106 151 1044 l 183 1099 l 187 969 q 348 962 205 967 q 538 957 491 957 q 742 960 560 957 q 936 964 924 964 q 747 710 905 926 q 460 316 583 486 q 272 50 303 98 q 596 65 446 50 q 846 126 798 86 q 868 184 853 134 q 905 306 884 234 "},"™":{"x_min":55,"x_max":1000.828125,"ha":1056,"o":"m 78 847 l 55 845 q 58 946 55 874 q 61 1025 61 1018 l 85 1023 l 89 981 q 252 972 116 972 q 362 974 311 972 q 428 978 413 977 l 434 1019 l 460 1023 q 449 935 456 1015 q 443 839 443 856 l 419 842 l 419 910 q 372 927 407 920 q 294 934 337 934 l 294 760 l 294 575 l 363 564 l 363 537 l 250 541 l 143 537 l 146 563 l 206 575 q 207 668 206 616 q 211 770 209 720 l 211 934 q 126 928 151 934 q 88 911 100 922 l 78 847 m 998 564 l 1000 537 l 910 541 l 820 537 l 821 563 l 870 575 q 856 663 870 590 q 818 855 836 759 q 752 686 804 823 q 691 530 699 550 q 631 692 686 541 q 566 866 575 842 l 560 866 q 538 698 548 780 q 524 575 528 616 l 579 564 l 581 537 l 492 541 l 418 537 l 419 563 l 470 575 q 505 755 473 586 q 541 942 538 924 l 482 951 l 481 976 l 577 972 l 673 976 l 667 950 l 621 945 q 664 818 624 929 q 713 684 699 722 q 764 821 725 709 q 805 942 803 932 l 757 949 l 756 976 l 842 972 l 927 976 l 924 949 l 877 945 q 914 749 886 887 q 953 575 942 612 l 998 564 "},"ã":{"x_min":-76,"x_max":1051,"ha":989,"o":"m 585 -6 l 592 23 q 683 31 672 30 q 733 42 717 39 q 659 257 695 149 q 587 449 602 422 q 420 442 537 449 q 266 430 304 436 q 236 328 261 417 q 169 42 180 127 q 217 33 180 40 q 289 23 254 27 l 294 -5 l 85 0 l -76 -6 l -71 23 q 47 42 -12 28 q 154 299 68 78 q 305 695 226 485 q 393 930 362 847 q 340 940 380 934 q 283 948 299 947 l 281 978 l 462 972 q 560 973 495 972 q 699 977 624 974 l 695 948 q 651 943 674 945 q 590 930 628 940 q 648 750 605 875 q 735 505 669 690 q 820 280 783 377 q 924 43 881 126 q 986 31 957 36 q 1046 23 1014 27 l 1051 -5 q 977 -2 1045 -4 q 820 0 909 0 q 702 -3 799 0 q 585 -6 605 -6 m 577 491 q 503 703 531 621 q 436 907 454 848 q 350 673 379 753 q 286 496 293 517 l 577 491 m 677 1211 l 716 1202 q 674 1129 703 1165 q 608 1085 638 1085 q 560 1093 588 1085 q 500 1116 533 1102 q 439 1138 467 1129 q 394 1147 410 1147 q 344 1133 363 1147 q 312 1097 326 1120 l 273 1105 q 314 1181 285 1141 q 380 1233 352 1233 q 433 1220 401 1233 q 478 1202 464 1208 q 544 1179 512 1190 q 602 1168 577 1168 q 647 1177 631 1168 q 677 1211 663 1187 "},"æ":{"x_min":-143,"x_max":1147.28125,"ha":1242,"o":"m 740 547 l 740 500 q 912 506 823 500 q 1028 522 1002 512 l 1042 581 l 1072 584 q 1054 466 1067 572 q 1036 326 1041 360 l 1009 337 l 1012 430 q 900 452 986 444 q 740 460 815 460 l 740 433 q 742 215 740 362 q 749 40 745 67 q 947 51 848 40 q 1084 87 1045 62 q 1099 140 1091 106 q 1115 209 1106 173 l 1147 218 q 1119 60 1137 177 q 1101 -102 1101 -56 l 1072 -96 l 1072 -12 q 870 -3 1012 -6 q 649 0 729 0 l 443 -5 l 448 24 q 505 28 467 24 q 577 40 542 33 q 582 221 581 51 q 584 416 584 391 l 584 460 q 452 453 553 460 q 309 441 351 446 q 216 271 278 404 q 125 42 147 125 q 170 32 130 39 q 219 24 211 25 l 225 -5 q 84 -1 137 -2 q 12 0 30 0 l -143 -5 l -134 24 l -16 40 q 148 298 8 73 q 401 704 301 543 q 544 933 536 922 q 498 941 533 936 q 441 948 463 947 l 434 977 l 555 972 l 650 972 l 675 972 l 716 972 q 955 974 857 972 q 1079 981 1054 976 l 1090 1047 l 1122 1053 q 1105 914 1116 1027 q 1095 765 1095 800 l 1064 775 l 1064 875 q 928 917 1047 901 q 749 933 809 933 q 744 766 748 926 q 740 547 740 606 m 584 500 l 584 545 l 584 709 l 584 742 l 584 770 l 584 792 l 584 810 q 584 894 584 871 l 576 894 q 433 658 495 760 q 344 505 363 541 q 418 501 359 502 q 488 500 477 500 l 504 500 q 549 500 529 500 q 584 500 568 500 "},"®":{"x_min":76,"x_max":1132,"ha":1208,"o":"m 604 994 q 979 846 827 994 q 1132 486 1132 698 q 980 125 1132 272 q 604 -22 829 -22 q 228 125 380 -22 q 76 486 76 273 q 227 846 76 699 q 604 994 378 994 m 592 927 q 295 805 415 927 q 175 497 175 684 q 306 177 175 309 q 615 45 437 45 q 910 167 788 45 q 1033 474 1033 289 q 901 794 1033 662 q 592 927 770 927 m 434 506 l 434 559 l 434 576 l 434 599 l 434 623 l 434 645 l 434 664 l 434 680 q 433 730 434 706 q 429 760 432 753 l 362 771 l 357 799 l 518 799 q 670 795 624 799 q 756 775 717 792 q 814 735 795 758 q 834 678 834 713 q 796 591 834 638 q 705 513 759 544 q 796 373 716 491 q 912 208 877 254 l 873 195 q 727 334 848 213 q 593 474 607 456 l 534 468 l 534 446 q 536 332 534 407 q 542 233 539 257 l 623 218 l 623 195 l 349 195 l 353 218 l 429 236 q 433 366 432 260 q 434 506 434 473 m 534 765 l 534 505 q 590 508 568 505 q 641 522 611 510 q 692 562 670 534 q 723 652 723 599 q 685 724 723 695 q 534 765 635 765 "},"É":{"x_min":66,"x_max":789.609375,"ha":885,"o":"m 226 476 l 226 540 q 223 766 226 634 q 216 929 220 897 q 172 935 209 930 q 71 948 135 940 l 66 977 l 313 972 l 342 972 l 384 972 q 606 974 516 972 q 721 981 696 976 l 732 1047 l 764 1053 q 748 913 759 1027 q 737 764 737 799 l 706 774 l 706 874 q 581 917 689 901 q 393 933 472 933 q 388 769 392 926 q 384 563 384 612 l 384 536 q 564 541 485 536 q 671 558 644 547 q 685 617 681 586 l 715 620 l 678 361 l 652 372 l 654 465 q 552 488 624 480 q 384 496 479 496 l 384 468 q 386 224 384 375 q 393 40 389 74 q 595 50 509 40 q 727 87 681 60 q 741 140 734 106 q 757 209 749 173 l 789 218 q 761 60 779 177 q 744 -102 744 -56 l 715 -96 l 715 -12 q 519 -4 692 -8 q 277 0 345 0 l 66 -5 l 72 24 q 141 30 95 24 q 216 43 187 36 q 223 200 220 60 q 226 476 226 340 m 637 1286 l 690 1179 q 532 1129 668 1180 q 379 1066 415 1084 l 362 1111 q 487 1187 372 1112 q 637 1286 594 1257 "},"³":{"x_min":84,"x_max":495,"ha":583,"o":"m 270 983 l 488 983 q 390 877 456 949 q 302 771 320 798 q 445 711 396 752 q 495 617 495 670 q 390 444 495 512 q 208 397 314 397 q 123 404 162 397 l 110 369 l 84 369 q 99 455 93 406 q 106 552 106 504 l 132 543 l 132 475 q 177 448 152 456 q 229 441 203 441 q 345 473 303 441 q 387 567 387 506 q 328 676 387 632 q 206 724 277 713 l 359 911 l 248 911 q 148 897 185 911 l 132 845 l 100 838 q 113 937 107 880 q 120 1067 120 994 l 148 1054 l 148 987 q 200 983 159 984 q 270 983 241 983 "},"¡":{"x_min":150,"x_max":350.046875,"ha":500,"o":"m 252 693 l 308 709 q 318 339 308 607 q 341 1 329 72 q 150 -21 238 -7 q 184 179 158 12 q 229 477 217 384 q 252 693 252 643 m 192 975 l 345 994 l 350 845 l 201 828 l 192 975 "},"[":{"x_min":131.9375,"x_max":430.5625,"ha":486,"o":"m 256 610 l 256 499 l 256 322 q 256 48 256 183 q 265 -119 257 -87 l 430 -139 l 420 -176 l 131 -166 q 138 151 138 -120 q 138 496 138 422 l 138 602 q 136 873 138 689 q 131 1073 134 1056 l 430 1083 l 423 1046 l 265 1031 q 258 870 260 1006 q 256 610 256 734 "},"L":{"x_min":65.671875,"x_max":805.953125,"ha":818,"o":"m 225 509 l 225 590 l 225 626 l 225 665 l 225 703 l 225 738 l 225 768 l 225 794 l 225 817 l 225 836 l 225 851 q 218 929 225 911 q 145 940 201 932 q 69 948 89 948 l 65 978 q 169 975 86 978 q 305 972 253 973 q 459 973 383 972 q 561 978 535 975 l 554 948 l 389 929 q 384 739 385 898 q 383 573 383 580 l 383 523 q 384 217 383 367 q 389 44 385 66 q 591 64 506 44 q 722 114 676 85 q 751 197 736 148 q 772 273 767 254 l 805 279 q 764 65 780 169 q 732 -178 747 -39 l 700 -171 l 707 -8 q 554 -4 697 -6 q 301 0 411 -1 q 172 -2 262 0 q 65 -5 82 -5 l 71 24 q 146 30 94 24 q 218 43 197 36 q 223 295 222 85 q 225 509 225 506 "}," ":{"x_min":0,"x_max":0,"ha":347},"%":{"x_min":69,"x_max":993,"ha":1063,"o":"m 277 527 q 69 733 69 527 q 135 904 69 834 q 302 975 201 975 q 458 921 405 975 q 511 769 511 868 q 441 598 511 669 q 277 527 372 527 m 405 734 q 371 881 405 825 q 285 937 338 937 q 209 899 240 937 q 175 768 175 856 q 195 647 175 699 q 296 567 227 567 q 366 601 337 567 q 405 734 405 647 m 759 0 q 605 52 659 0 q 551 205 551 105 q 617 374 551 304 q 784 445 683 445 q 940 393 887 445 q 993 240 993 342 q 924 70 993 140 q 759 0 855 0 m 780 40 q 848 74 819 40 q 887 208 887 120 q 853 350 887 294 q 767 407 820 407 q 691 370 720 407 q 657 240 657 327 q 679 123 657 179 q 780 40 712 40 m 312 0 l 200 -8 q 295 147 217 12 q 437 393 396 321 q 541 576 488 484 q 669 796 620 711 q 763 975 762 958 l 873 975 q 736 767 844 940 q 581 511 628 594 q 438 248 525 415 q 312 0 350 81 "},"P":{"x_min":66,"x_max":845,"ha":888,"o":"m 382 580 l 382 522 q 383 237 382 404 q 388 42 384 70 q 455 35 395 41 q 564 23 514 28 l 571 -6 q 446 -3 552 -6 q 306 0 341 0 q 175 -3 268 0 q 66 -6 82 -6 l 71 23 q 117 27 96 25 q 219 42 173 34 q 223 258 223 84 q 226 529 224 432 l 226 585 l 226 610 l 226 644 l 226 682 l 226 718 l 226 749 l 226 779 l 226 802 l 226 823 l 226 841 q 219 929 226 909 q 150 942 198 935 q 70 948 103 948 l 66 977 l 374 979 q 572 969 488 979 q 708 938 657 959 q 806 872 772 912 q 845 767 845 826 q 820 647 845 699 q 749 547 796 594 q 588 447 689 487 q 457 411 517 419 l 461 445 q 623 543 566 472 q 680 718 680 613 q 650 831 680 781 q 567 906 621 880 q 488 929 535 922 q 388 937 440 937 q 383 750 384 909 q 382 580 382 590 "},"À":{"x_min":-76,"x_max":1051,"ha":989,"o":"m 585 -6 l 592 23 q 683 31 672 30 q 733 42 717 39 q 659 257 695 149 q 587 449 602 422 q 420 442 537 449 q 266 430 304 436 q 236 328 261 417 q 169 42 180 127 q 217 33 180 40 q 289 23 254 27 l 294 -5 l 85 0 l -76 -6 l -71 23 q 47 42 -12 28 q 154 299 68 78 q 305 695 226 485 q 393 930 362 847 q 340 940 380 934 q 283 948 299 947 l 281 978 l 462 972 q 560 973 495 972 q 699 977 624 974 l 695 948 q 651 943 674 945 q 590 930 628 940 q 648 750 605 875 q 735 505 669 690 q 820 280 783 377 q 924 43 881 126 q 986 31 957 36 q 1046 23 1014 27 l 1051 -5 q 977 -2 1045 -4 q 820 0 909 0 q 702 -3 799 0 q 585 -6 605 -6 m 577 491 q 503 703 531 621 q 436 907 454 848 q 350 673 379 753 q 286 496 293 517 l 577 491 m 246 1179 l 301 1286 q 450 1188 333 1264 q 576 1111 567 1112 l 559 1066 q 406 1127 526 1082 q 246 1179 266 1180 "},"_":{"x_min":0,"x_max":694.453125,"ha":694,"o":"m 694 -173 l 0 -173 l 0 -104 l 694 -104 l 694 -173 "},"ñ":{"x_min":54.5625,"x_max":1211.5,"ha":1261,"o":"m 60 943 l 54 972 q 160 974 96 972 q 371 982 321 982 q 465 856 387 956 q 612 670 553 744 q 704 559 687 576 q 900 330 822 420 q 1005 215 983 233 q 999 714 1005 538 q 976 929 992 890 q 907 941 955 933 q 836 949 858 949 l 829 977 q 917 974 849 976 q 1036 972 985 972 q 1126 973 1069 972 q 1211 978 1183 975 l 1205 949 l 1100 929 q 1081 791 1089 894 q 1074 634 1074 687 q 1064 263 1074 555 q 1050 -69 1055 -29 q 921 74 1036 -55 q 717 310 818 192 q 592 454 649 390 l 262 850 l 262 815 q 271 359 262 644 q 293 43 280 75 q 367 31 305 38 q 444 23 380 30 l 449 -5 q 364 -2 430 -4 q 243 0 297 0 l 54 -5 l 58 23 q 123 31 94 27 q 174 43 151 36 q 194 287 185 69 q 205 644 199 386 q 212 926 212 902 q 142 937 185 931 q 60 943 100 943 m 855 1211 l 894 1202 q 852 1129 881 1165 q 786 1085 816 1085 q 738 1093 766 1085 q 678 1116 711 1102 q 617 1138 645 1129 q 572 1147 588 1147 q 522 1133 541 1147 q 490 1097 504 1120 l 451 1105 q 492 1181 463 1141 q 558 1233 530 1233 q 611 1220 579 1233 q 656 1202 642 1208 q 722 1179 690 1190 q 780 1168 755 1168 q 825 1177 809 1168 q 855 1211 841 1187 "},"‚":{"x_min":68.0625,"x_max":243,"ha":319,"o":"m 105 -171 l 68 -171 q 109 8 94 -85 q 124 186 124 102 l 243 141 q 173 -11 208 66 q 105 -171 129 -111 "},"Æ":{"x_min":-143,"x_max":1147.28125,"ha":1242,"o":"m 740 547 l 740 500 q 912 506 823 500 q 1028 522 1002 512 l 1042 581 l 1072 584 q 1054 466 1067 572 q 1036 326 1041 360 l 1009 337 l 1012 430 q 900 452 986 444 q 740 460 815 460 l 740 433 q 742 215 740 362 q 749 40 745 67 q 947 51 848 40 q 1084 87 1045 62 q 1099 140 1091 106 q 1115 209 1106 173 l 1147 218 q 1119 60 1137 177 q 1101 -102 1101 -56 l 1072 -96 l 1072 -12 q 870 -3 1012 -6 q 649 0 729 0 l 443 -5 l 448 24 q 505 28 467 24 q 577 40 542 33 q 582 221 581 51 q 584 416 584 391 l 584 460 q 452 453 553 460 q 309 441 351 446 q 216 271 278 404 q 125 42 147 125 q 170 32 130 39 q 219 24 211 25 l 225 -5 q 84 -1 137 -2 q 12 0 30 0 l -143 -5 l -134 24 l -16 40 q 148 298 8 73 q 401 704 301 543 q 544 933 536 922 q 498 941 533 936 q 441 948 463 947 l 434 977 l 650 972 l 675 972 l 716 972 q 955 974 857 972 q 1079 981 1054 976 l 1090 1047 l 1122 1053 q 1105 914 1116 1027 q 1095 765 1095 800 l 1064 775 l 1064 875 q 928 917 1047 901 q 749 933 809 933 q 744 766 748 926 q 740 547 740 606 m 584 500 l 584 545 l 584 709 l 584 742 l 584 770 l 584 792 l 584 810 q 584 894 584 871 l 576 894 q 433 658 495 760 q 344 505 363 541 q 418 501 359 502 q 488 500 477 500 l 504 500 q 549 500 529 500 q 584 500 568 500 "},"ğ":{"x_min":78,"x_max":1208.546875,"ha":1257,"o":"m 1075 232 l 1075 187 q 1075 101 1075 161 q 1075 23 1075 41 q 905 -8 1015 5 q 720 -22 795 -22 q 547 -10 626 -22 q 353 44 432 5 q 150 220 222 109 q 78 462 78 330 q 141 713 78 599 q 297 881 198 814 q 488 968 387 942 q 705 994 589 994 q 885 983 790 994 q 1016 959 980 973 l 1041 1088 l 1073 1095 q 1061 910 1068 1059 q 1054 666 1054 760 l 1022 682 q 1018 736 1022 710 q 1006 810 1015 763 q 898 893 963 861 q 645 945 794 945 q 355 829 467 945 q 243 544 243 714 q 376 201 243 358 q 736 28 523 28 q 825 34 780 28 q 912 64 871 41 q 917 201 917 96 l 917 275 l 917 291 q 911 386 917 356 q 832 392 868 388 q 771 401 797 395 l 762 430 l 990 426 l 1018 426 l 1046 426 l 1072 426 l 1096 426 l 1115 426 l 1132 426 q 1208 430 1197 426 l 1201 401 q 1134 394 1165 397 q 1080 386 1102 391 q 1076 320 1077 372 q 1075 232 1075 269 m 812 1256 l 836 1233 q 736 1134 796 1168 q 628 1107 686 1107 q 503 1150 557 1107 q 437 1233 459 1184 l 464 1256 q 532 1208 486 1228 q 639 1189 579 1189 q 753 1212 701 1189 q 812 1256 793 1230 "},"Ë":{"x_min":66,"x_max":789.609375,"ha":885,"o":"m 226 476 l 226 540 q 223 766 226 634 q 216 929 220 897 q 172 935 209 930 q 71 948 135 940 l 66 977 l 313 972 l 342 972 l 384 972 q 606 974 516 972 q 721 981 696 976 l 732 1047 l 764 1053 q 748 913 759 1027 q 737 764 737 799 l 706 774 l 706 874 q 581 917 689 901 q 393 933 472 933 q 388 769 392 926 q 384 563 384 612 l 384 536 q 564 541 485 536 q 671 558 644 547 q 685 617 681 586 l 715 620 l 678 361 l 652 372 l 654 465 q 552 488 624 480 q 384 496 479 496 l 384 468 q 386 224 384 375 q 393 40 389 74 q 595 50 509 40 q 727 87 681 60 q 741 140 734 106 q 757 209 749 173 l 789 218 q 761 60 779 177 q 744 -102 744 -56 l 715 -96 l 715 -12 q 519 -4 692 -8 q 277 0 345 0 l 66 -5 l 72 24 q 141 30 95 24 q 216 43 187 36 q 223 200 220 60 q 226 476 226 340 m 207 1137 l 274 1246 l 381 1173 l 311 1066 l 207 1137 m 504 1139 l 572 1246 l 678 1173 l 607 1066 l 504 1139 "},"Š":{"x_min":87,"x_max":683,"ha":767,"o":"m 119 -131 l 87 -140 q 95 -74 91 -112 q 109 87 109 44 q 111 172 109 108 q 115 277 113 237 q 115 306 115 300 l 146 298 q 148 238 146 277 q 155 176 151 200 q 242 66 184 108 q 370 25 300 25 q 511 73 454 25 q 568 199 568 122 q 487 358 568 290 q 389 426 460 380 q 186 601 234 527 q 145 749 145 666 q 210 912 145 844 q 431 994 289 994 q 544 985 491 994 q 619 969 566 983 q 630 1018 623 986 q 644 1081 637 1049 l 675 1086 q 651 883 660 981 q 643 705 643 784 l 611 719 q 609 774 611 754 q 605 825 608 794 q 544 905 591 868 q 420 950 487 950 q 291 904 338 950 q 251 811 251 865 q 341 677 251 743 q 451 605 374 654 q 639 441 592 516 q 683 280 683 372 q 583 57 683 140 q 341 -22 488 -22 q 234 -12 291 -22 q 150 13 177 -2 l 119 -131 m 569 1274 l 594 1240 q 479 1130 588 1235 q 419 1071 436 1089 q 343 1137 387 1096 q 229 1240 286 1189 l 255 1274 q 334 1228 262 1268 q 422 1181 406 1187 q 499 1226 444 1190 q 569 1274 554 1263 "},"ª":{"x_min":32,"x_max":613.953125,"ha":639,"o":"m 365 538 l 369 564 l 435 573 q 405 644 418 613 q 373 714 383 698 q 310 711 354 715 q 214 703 265 707 q 189 627 208 693 q 174 573 175 583 l 226 563 l 226 537 l 120 541 q 75 541 97 541 q 32 538 52 540 l 33 564 l 88 573 q 184 761 107 590 q 259 941 262 933 l 213 948 l 213 976 l 313 972 l 438 976 l 436 948 l 384 941 l 458 765 q 516 636 497 676 q 551 573 536 597 l 612 563 l 613 537 l 483 541 l 365 538 m 226 745 l 365 745 l 292 925 l 226 745 "},"Œ":{"x_min":76,"x_max":1448.21875,"ha":1542,"o":"m 1337 361 l 1310 372 l 1313 466 q 1203 488 1288 480 q 1043 496 1117 496 l 1043 469 q 1045 231 1043 394 q 1052 40 1048 69 q 1245 51 1149 40 q 1385 87 1341 62 q 1405 159 1395 113 q 1416 209 1414 205 l 1448 218 q 1420 60 1438 177 q 1402 -102 1402 -56 l 1373 -96 l 1373 -12 q 1174 -4 1350 -8 q 954 0 999 0 q 789 -13 930 0 q 650 -22 704 -22 q 422 5 518 -22 q 203 134 292 43 q 101 302 131 209 q 76 474 76 377 q 238 834 76 683 q 666 994 409 994 q 814 987 749 994 q 955 972 880 980 l 984 972 l 1027 972 q 1260 974 1164 972 q 1380 981 1355 976 l 1391 1047 l 1423 1053 q 1406 913 1417 1027 q 1395 764 1395 799 l 1364 774 l 1364 874 q 1233 917 1347 901 q 1051 933 1120 933 q 1045 778 1048 921 q 1043 559 1043 634 l 1043 536 q 1212 542 1119 536 q 1330 556 1306 548 l 1343 616 l 1373 619 q 1355 499 1368 608 q 1337 361 1341 390 m 885 471 l 885 574 q 882 733 885 669 q 876 882 879 798 q 783 920 855 903 q 633 937 710 937 q 355 838 465 937 q 232 528 232 727 q 373 187 232 338 q 698 36 515 36 q 879 69 823 36 q 883 194 882 83 q 885 471 885 305 "},"˛":{"x_min":497,"x_max":761,"ha":1274,"o":"m 642 -1 l 687 -1 q 635 -67 660 -27 q 598 -175 598 -128 q 655 -263 598 -234 q 745 -283 694 -283 q 761 -283 756 -283 l 748 -322 q 721 -322 737 -322 q 690 -322 705 -322 q 548 -294 599 -322 q 497 -218 497 -266 q 556 -85 497 -161 q 642 -1 605 -23 "},"ð":{"x_min":78,"x_max":1208.546875,"ha":1257,"o":"m 1075 232 l 1075 187 q 1075 101 1075 161 q 1075 23 1075 41 q 905 -8 1015 5 q 720 -22 795 -22 q 547 -10 626 -22 q 353 44 432 5 q 150 220 222 109 q 78 462 78 330 q 141 713 78 599 q 297 881 198 814 q 488 968 387 942 q 705 994 589 994 q 885 983 790 994 q 1016 959 980 973 l 1041 1088 l 1073 1095 q 1061 910 1068 1059 q 1054 666 1054 760 l 1022 682 q 1018 736 1022 710 q 1006 810 1015 763 q 898 893 963 861 q 645 945 794 945 q 355 829 467 945 q 243 544 243 714 q 376 201 243 358 q 736 28 523 28 q 825 34 780 28 q 912 64 871 41 q 917 201 917 96 l 917 275 l 917 291 q 911 386 917 356 q 832 392 868 388 q 771 401 797 395 l 762 430 l 990 426 l 1018 426 l 1046 426 l 1072 426 l 1096 426 l 1115 426 l 1132 426 q 1208 430 1197 426 l 1201 401 q 1134 394 1165 397 q 1080 386 1102 391 q 1076 320 1077 372 q 1075 232 1075 269 m 812 1256 l 836 1233 q 736 1134 796 1168 q 628 1107 686 1107 q 503 1150 557 1107 q 437 1233 459 1184 l 464 1256 q 532 1208 486 1228 q 639 1189 579 1189 q 753 1212 701 1189 q 812 1256 793 1230 "},"T":{"x_min":12,"x_max":1039,"ha":1036,"o":"m 438 510 l 438 573 q 436 819 438 756 q 431 914 435 882 q 182 894 278 914 q 71 855 110 879 q 62 822 67 843 q 43 725 57 801 l 12 716 q 17 826 12 756 q 32 1067 32 1019 l 64 1061 l 73 970 q 241 962 89 968 q 521 957 393 957 q 812 962 657 957 q 984 970 966 968 q 995 1013 989 981 q 1004 1056 1001 1044 l 1039 1062 q 1016 895 1033 1041 q 994 704 998 750 l 962 712 q 963 778 962 743 q 965 855 964 814 q 820 894 940 875 q 602 914 700 914 q 598 793 600 886 q 596 573 596 699 l 596 510 q 599 235 596 423 q 603 42 603 48 l 782 23 l 787 -6 q 668 -3 776 -6 q 515 0 560 0 q 372 -3 480 0 q 246 -6 264 -6 l 253 23 l 431 42 q 434 310 431 120 q 438 510 438 499 "},"š":{"x_min":66,"x_max":544,"ha":611,"o":"m 384 569 l 384 483 q 385 197 384 333 q 390 42 386 62 q 445 33 400 39 q 537 23 489 27 l 544 -6 q 446 -1 518 -3 q 282 0 373 0 q 195 -1 254 0 q 66 -5 135 -2 l 71 24 q 136 30 92 24 q 219 43 181 36 q 224 286 223 83 q 226 494 226 488 l 226 576 l 226 602 l 226 638 l 226 677 l 226 713 l 226 746 l 226 775 l 226 800 l 226 822 l 226 840 l 226 855 q 219 929 226 911 q 160 936 212 930 q 73 948 109 943 l 66 977 q 156 973 88 975 q 329 972 224 972 q 456 973 391 972 q 543 977 521 975 l 536 948 l 390 929 q 385 817 386 911 q 384 569 384 724 m 203 1146 l 284 1256 l 402 1172 l 320 1067 l 203 1146 "},"Þ":{"x_min":87,"x_max":682,"ha":767,"o":"m 372 -21 l 303 -105 q 394 -149 362 -122 q 426 -217 426 -176 q 336 -328 426 -288 q 165 -362 259 -362 l 178 -318 q 282 -295 247 -318 q 318 -234 318 -272 q 292 -175 318 -201 q 209 -134 266 -150 l 302 -21 q 218 -11 258 -21 q 149 13 178 -2 l 118 -131 l 87 -140 q 94 -74 90 -112 q 108 87 108 44 q 110 172 108 108 q 114 277 112 237 q 114 306 114 300 l 145 298 q 147 238 145 277 q 154 176 150 200 q 241 66 183 108 q 369 25 299 25 q 510 73 453 25 q 567 199 567 122 q 486 358 567 290 q 388 426 459 380 q 185 601 233 527 q 144 749 144 666 q 209 912 144 844 q 430 994 288 994 q 543 985 490 994 q 618 969 565 983 q 629 1018 622 986 q 643 1081 636 1049 l 674 1086 q 650 883 659 981 q 642 705 642 784 l 610 719 q 608 774 610 754 q 604 825 607 794 q 543 905 590 868 q 419 950 486 950 q 290 904 337 950 q 250 811 250 865 q 340 677 250 743 q 450 605 373 654 q 638 441 591 516 q 682 280 682 372 q 593 63 682 147 q 372 -21 504 -21 "},"j":{"x_min":29.5625,"x_max":543.4375,"ha":582,"o":"m 384 571 l 384 497 l 384 176 q 372 24 384 79 q 318 -103 361 -30 q 243 -201 289 -155 q 79 -340 188 -258 l 50 -330 q 158 -184 122 -253 q 198 -81 182 -139 q 222 106 214 -23 q 231 473 231 236 l 231 569 q 228 777 231 678 q 218 929 226 876 q 128 940 200 932 q 35 949 55 949 l 29 978 q 151 975 57 978 q 303 972 246 973 q 408 973 344 972 q 543 978 471 975 l 539 949 l 390 929 q 386 776 388 904 q 384 571 384 648 "},"ş":{"x_min":87,"x_max":682,"ha":767,"o":"m 372 -21 l 303 -105 q 394 -149 362 -122 q 426 -217 426 -176 q 336 -328 426 -288 q 165 -362 259 -362 l 178 -318 q 282 -295 247 -318 q 318 -234 318 -272 q 292 -175 318 -201 q 209 -134 266 -150 l 302 -21 q 218 -11 258 -21 q 149 13 178 -2 l 118 -131 l 87 -140 q 94 -74 90 -112 q 108 87 108 44 q 110 172 108 108 q 114 277 112 237 q 114 306 114 300 l 145 298 q 147 238 145 277 q 154 176 150 200 q 241 66 183 108 q 369 25 299 25 q 510 73 453 25 q 567 199 567 122 q 486 358 567 290 q 388 426 459 380 q 185 601 233 527 q 144 749 144 666 q 209 912 144 844 q 430 994 288 994 q 543 985 490 994 q 618 969 565 983 q 629 1018 622 986 q 643 1081 636 1049 l 674 1086 q 650 883 659 981 q 642 705 642 784 l 610 719 q 608 774 610 754 q 604 825 607 794 q 543 905 590 868 q 419 950 486 950 q 290 904 337 950 q 250 811 250 865 q 340 677 250 743 q 450 605 373 654 q 638 441 591 516 q 682 280 682 372 q 593 63 682 147 q 372 -21 504 -21 "},"1":{"x_min":29.171875,"x_max":627.78125,"ha":643,"o":"m 418 551 l 418 491 q 419 190 418 313 q 424 44 420 67 q 520 32 438 41 q 620 23 601 24 l 627 -6 q 494 -3 613 -6 q 337 0 375 0 q 211 -1 297 0 q 30 -6 125 -3 l 36 23 l 258 44 q 263 269 262 85 q 265 464 265 453 l 265 558 l 265 583 l 265 616 l 265 649 l 265 681 l 265 710 l 265 735 l 265 757 l 265 776 l 265 793 q 258 882 265 857 q 156 872 220 882 q 38 853 92 861 l 29 882 q 252 950 69 892 q 434 1009 343 980 q 423 820 429 953 q 418 551 418 686 "},"›":{"x_min":66,"x_max":544,"ha":611,"o":"m 384 569 l 384 483 q 385 197 384 333 q 390 42 386 62 q 445 33 400 39 q 537 23 489 27 l 544 -6 q 446 -1 518 -3 q 282 0 373 0 q 195 -1 254 0 q 66 -5 135 -2 l 71 24 q 136 30 92 24 q 219 43 181 36 q 224 286 223 83 q 226 495 226 489 l 226 577 l 226 603 l 226 639 l 226 677 l 226 713 l 226 746 l 226 775 l 226 800 l 226 822 l 226 840 l 226 855 q 219 929 226 911 q 160 937 212 930 q 73 948 109 943 l 66 978 q 156 973 88 975 q 329 972 224 972 q 456 973 391 972 q 543 977 521 975 l 536 948 l 390 929 q 385 817 386 911 q 384 569 384 724 "},"ı":{"x_min":66,"x_max":544,"ha":611,"o":"m 384 569 l 384 483 q 385 197 384 333 q 390 42 386 62 q 445 33 400 39 q 537 23 489 27 l 544 -6 q 446 -1 518 -3 q 282 0 373 0 q 195 -1 254 0 q 66 -5 135 -2 l 71 24 q 136 30 92 24 q 219 43 181 36 q 224 286 223 83 q 226 495 226 489 l 226 577 l 226 603 l 226 639 l 226 677 l 226 713 l 226 746 l 226 775 l 226 800 l 226 822 l 226 840 l 226 855 q 219 929 226 911 q 160 937 212 930 q 73 948 109 943 l 66 978 q 156 973 88 975 q 329 972 224 972 q 456 973 391 972 q 543 977 521 975 l 536 948 l 390 929 q 385 817 386 911 q 384 569 384 724 "},"ä":{"x_min":-76,"x_max":1051,"ha":989,"o":"m 585 -6 l 592 23 q 683 31 672 30 q 733 42 717 39 q 659 257 695 149 q 587 449 602 422 q 420 442 537 449 q 266 430 304 436 q 236 328 261 417 q 169 42 180 127 q 217 33 180 40 q 289 23 254 27 l 294 -5 l 85 0 l -76 -6 l -71 23 q 47 42 -12 28 q 154 299 68 78 q 305 695 226 485 q 393 930 362 847 q 340 940 380 934 q 283 948 299 947 l 281 978 l 462 972 q 560 973 495 972 q 699 977 624 974 l 695 948 q 651 943 674 945 q 590 930 628 940 q 648 750 605 875 q 735 505 669 690 q 820 280 783 377 q 924 43 881 126 q 986 31 957 36 q 1046 23 1014 27 l 1051 -5 q 977 -2 1045 -4 q 820 0 909 0 q 702 -3 799 0 q 585 -6 605 -6 m 577 491 q 503 703 531 621 q 436 907 454 848 q 350 673 379 753 q 286 496 293 517 l 577 491 m 259 1137 l 326 1246 l 433 1173 l 363 1066 l 259 1137 m 556 1139 l 624 1246 l 730 1173 l 659 1066 l 556 1139 "},"£":{"x_min":44,"x_max":721.78125,"ha":743,"o":"m 689 237 l 721 247 q 699 83 712 195 q 682 -144 682 -63 l 650 -135 l 644 -24 q 472 -7 625 -15 q 266 0 319 0 q 163 -3 244 0 q 64 -6 82 -6 l 81 25 q 162 65 126 25 q 204 190 204 112 q 197 332 204 259 q 182 462 191 406 q 114 457 153 462 q 44 444 75 453 l 59 501 l 182 501 q 171 615 176 555 q 166 705 166 676 q 220 890 166 818 q 466 994 296 994 q 577 980 528 994 q 628 962 602 970 l 656 1097 l 688 1097 q 666 918 674 1028 q 658 727 658 808 l 626 736 q 624 781 626 756 q 617 840 623 806 q 566 905 600 876 q 448 950 513 950 q 324 881 360 950 q 302 773 302 838 q 302 750 302 752 q 306 645 302 704 q 320 505 311 587 q 432 513 349 505 q 535 527 516 520 l 516 462 l 324 462 q 327 418 324 445 q 337 306 337 327 q 300 173 337 238 q 223 72 277 130 l 375 72 q 550 79 470 72 q 655 94 631 87 l 689 237 "},"¹":{"x_min":54.5625,"x_max":437.890625,"ha":500,"o":"m 202 681 l 202 736 l 202 800 l 202 833 q 197 910 202 889 q 136 904 176 910 q 69 896 96 899 l 54 922 q 176 953 135 942 q 319 995 267 977 q 310 884 315 966 q 306 743 306 803 l 306 697 q 308 542 306 611 q 315 447 311 472 q 365 439 326 444 q 432 432 403 434 l 437 403 l 255 408 l 55 402 l 58 431 q 145 440 114 437 q 195 447 176 443 q 200 540 199 468 q 202 681 202 613 "},"t":{"x_min":12,"x_max":1039,"ha":1036,"o":"m 438 510 l 438 573 q 436 819 438 756 q 431 914 435 882 q 182 894 278 914 q 71 855 110 879 q 62 822 67 843 q 43 725 57 801 l 12 716 q 17 826 12 756 q 32 1067 32 1019 l 64 1061 l 73 970 q 241 962 89 968 q 521 957 393 957 q 812 962 657 957 q 984 970 966 968 q 995 1013 989 981 q 1004 1056 1001 1044 l 1039 1062 q 1016 895 1033 1041 q 994 704 998 750 l 962 712 q 963 778 962 743 q 965 855 964 814 q 820 894 940 875 q 602 914 700 914 q 598 793 600 886 q 596 573 596 699 l 596 510 q 599 235 596 423 q 603 42 603 48 l 782 23 l 787 -6 q 668 -3 776 -6 q 515 0 560 0 q 372 -3 480 0 q 246 -6 264 -6 l 253 23 l 431 42 q 434 310 431 120 q 438 510 438 499 "},"ù":{"x_min":61,"x_max":1137.390625,"ha":1190,"o":"m 182 398 l 182 615 q 180 814 182 734 q 175 929 179 894 q 131 937 169 930 q 65 948 92 944 l 61 978 q 152 975 72 978 q 295 972 233 972 q 409 975 331 972 q 501 978 487 978 l 494 948 q 423 940 469 946 q 349 929 377 934 q 344 779 345 904 q 343 610 343 654 l 343 425 q 423 118 343 218 q 617 31 494 31 q 817 97 747 31 q 891 233 872 149 q 911 457 911 318 l 911 585 l 911 610 l 911 644 l 911 682 l 911 718 l 911 749 l 911 779 l 911 804 l 911 825 l 911 843 q 904 929 911 911 q 827 941 883 933 q 752 948 772 948 l 742 978 q 836 975 754 978 q 967 972 917 972 q 1137 978 1090 972 l 1129 948 l 1031 929 q 1027 841 1029 914 q 1025 697 1025 768 l 1025 630 l 1025 459 q 997 244 1025 332 q 889 75 965 141 q 768 3 838 29 q 600 -22 698 -22 q 284 97 393 -22 q 182 398 182 208 m 346 1179 l 401 1286 q 550 1188 433 1264 q 676 1111 667 1112 l 659 1066 q 506 1127 626 1082 q 346 1179 366 1180 "},"W":{"x_min":-37,"x_max":1511.609375,"ha":1464,"o":"m -31 948 l -37 978 q 39 975 -25 978 q 167 972 104 972 q 306 973 256 972 q 390 978 356 975 l 383 948 l 257 929 q 308 729 267 887 q 394 411 350 572 q 450 219 437 250 q 612 634 526 403 q 701 893 687 836 q 627 905 687 895 q 565 915 596 909 l 558 944 q 659 941 585 944 q 756 939 733 939 q 851 940 801 939 q 954 944 900 941 l 950 915 q 884 905 912 909 q 839 893 857 901 q 907 706 872 800 q 1014 415 959 563 q 1092 211 1069 267 q 1151 394 1129 322 q 1240 697 1205 569 q 1286 929 1286 869 q 1225 938 1271 931 q 1156 948 1179 944 l 1149 977 q 1331 972 1207 972 q 1417 973 1372 972 q 1511 978 1461 975 l 1507 948 q 1460 940 1486 946 q 1418 929 1435 934 q 1311 661 1401 911 q 1151 199 1259 519 q 1059 -71 1059 -70 q 966 153 1044 -38 q 823 508 854 430 q 727 758 748 699 q 637 528 678 634 q 505 194 541 284 q 395 -72 434 16 q 309 194 375 -22 q 179 622 243 411 q 72 929 107 852 q 16 941 49 934 q -31 948 -16 947 "},"Ğ":{"x_min":78,"x_max":1208.546875,"ha":1257,"o":"m 1075 232 l 1075 187 q 1075 101 1075 161 q 1075 23 1075 41 q 905 -8 1015 5 q 720 -22 795 -22 q 547 -10 626 -22 q 353 44 432 5 q 150 220 222 109 q 78 462 78 330 q 141 713 78 599 q 297 881 198 814 q 488 968 387 942 q 705 994 589 994 q 885 983 790 994 q 1016 959 980 973 l 1041 1088 l 1073 1095 q 1061 910 1068 1059 q 1054 666 1054 760 l 1022 682 q 1018 736 1022 710 q 1006 810 1015 763 q 898 893 963 861 q 645 945 794 945 q 355 829 467 945 q 243 544 243 714 q 376 201 243 358 q 736 28 523 28 q 825 34 780 28 q 912 64 871 41 q 917 201 917 96 l 917 275 l 917 291 q 911 386 917 356 q 832 392 868 388 q 771 401 797 395 l 762 430 l 990 426 l 1018 426 l 1046 426 l 1072 426 l 1096 426 l 1115 426 l 1132 426 q 1208 430 1197 426 l 1201 401 q 1134 394 1165 397 q 1080 386 1102 391 q 1076 320 1077 372 q 1075 232 1075 269 m 812 1256 l 836 1233 q 736 1134 796 1168 q 628 1107 686 1107 q 503 1150 557 1107 q 437 1233 459 1184 l 464 1256 q 532 1208 486 1228 q 639 1189 579 1189 q 753 1212 701 1189 q 812 1256 793 1230 "},"ï":{"x_min":66,"x_max":544,"ha":611,"o":"m 384 569 l 384 483 q 385 197 384 333 q 390 42 386 62 q 445 33 400 39 q 537 23 489 27 l 544 -6 q 446 -1 518 -3 q 282 0 373 0 q 195 -1 254 0 q 66 -5 135 -2 l 71 24 q 136 30 92 24 q 219 43 181 36 q 224 286 223 83 q 226 495 226 489 l 226 577 l 226 603 l 226 639 l 226 677 l 226 713 l 226 746 l 226 775 l 226 800 l 226 822 l 226 840 l 226 855 q 219 929 226 911 q 160 937 212 930 q 73 948 109 943 l 66 978 q 156 973 88 975 q 329 972 224 972 q 456 973 391 972 q 543 977 521 975 l 536 948 l 390 929 q 385 817 386 911 q 384 569 384 724 m 70 1137 l 137 1246 l 244 1173 l 174 1066 l 70 1137 m 367 1139 l 435 1246 l 541 1173 l 470 1066 l 367 1139 "},"v":{"x_min":-43.0625,"x_max":1112.5,"ha":1038,"o":"m -37 948 l -43 978 q 47 975 -18 978 q 156 972 112 973 q 297 973 229 972 q 397 978 366 975 l 390 948 q 308 939 338 943 q 259 929 277 936 q 337 729 265 902 q 480 395 416 538 q 577 197 558 220 q 665 381 597 237 q 802 687 758 580 q 888 929 876 863 l 761 948 l 754 977 q 823 973 770 975 q 956 972 876 972 q 1047 975 994 972 q 1112 978 1100 978 l 1105 948 l 1020 929 q 883 675 1009 922 q 651 210 772 457 q 520 -60 530 -37 q 394 208 505 -34 q 191 647 255 511 q 48 929 77 887 q 26 934 34 933 q -37 948 -15 946 "},"û":{"x_min":61,"x_max":1137.390625,"ha":1190,"o":"m 182 398 l 182 615 q 180 814 182 734 q 175 929 179 894 q 131 937 169 930 q 65 948 92 944 l 61 978 q 152 975 72 978 q 295 972 233 972 q 409 975 331 972 q 501 978 487 978 l 494 948 q 423 940 469 946 q 349 929 377 934 q 344 779 345 904 q 343 610 343 654 l 343 425 q 423 118 343 218 q 617 31 494 31 q 817 97 747 31 q 891 233 872 149 q 911 457 911 318 l 911 585 l 911 610 l 911 644 l 911 682 l 911 718 l 911 749 l 911 779 l 911 804 l 911 825 l 911 843 q 904 929 911 911 q 827 941 883 933 q 752 948 772 948 l 742 978 q 836 975 754 978 q 967 972 917 972 q 1137 978 1090 972 l 1129 948 l 1031 929 q 1027 841 1029 914 q 1025 697 1025 768 l 1025 630 l 1025 459 q 997 244 1025 332 q 889 75 965 141 q 768 3 838 29 q 600 -22 698 -22 q 284 97 393 -22 q 182 398 182 208 m 479 1071 l 452 1103 q 544 1191 470 1120 q 629 1274 618 1261 q 734 1179 701 1208 q 819 1105 802 1119 l 793 1071 l 626 1164 q 550 1119 602 1153 q 479 1071 497 1085 "},"Ò":{"x_min":76,"x_max":1239,"ha":1315,"o":"m 638 -22 q 420 5 512 -22 q 209 133 298 43 q 105 288 135 208 q 76 469 76 368 q 237 834 76 684 q 685 994 409 994 q 894 969 805 994 q 1070 881 983 945 q 1194 730 1150 823 q 1239 537 1239 637 q 1069 132 1239 286 q 638 -22 899 -22 m 707 35 q 963 152 857 35 q 1070 435 1070 269 q 940 796 1070 652 q 634 941 811 941 q 363 842 475 941 q 236 527 236 728 q 369 187 236 334 q 707 35 508 35 m 409 1179 l 464 1286 q 613 1188 496 1264 q 739 1111 730 1112 l 722 1066 q 569 1127 689 1082 q 409 1179 429 1180 "},"&":{"x_min":87,"x_max":1098.109375,"ha":1131,"o":"m 1052 -22 l 985 -39 q 880 26 941 -18 q 774 104 827 65 q 639 18 713 48 q 425 -22 543 -22 q 184 48 282 -22 q 87 226 87 119 q 167 405 87 325 q 336 510 233 471 q 223 640 262 578 q 180 766 180 709 q 267 927 180 860 q 478 994 354 994 q 678 933 604 994 q 745 798 745 877 q 677 657 745 729 q 501 528 610 586 q 657 361 578 443 q 802 214 730 287 q 848 323 828 255 q 867 451 867 391 q 866 482 867 472 l 759 497 l 749 526 q 844 523 773 526 q 928 520 916 520 q 1025 522 968 520 q 1098 526 1081 523 l 1088 497 q 1026 490 1045 493 q 985 482 1007 487 q 941 334 974 407 q 841 177 907 261 q 962 56 911 104 q 1052 -22 1013 8 m 247 277 q 319 111 247 176 q 488 46 391 46 q 630 73 567 46 q 733 140 692 100 q 545 302 656 198 q 366 478 460 382 q 279 391 312 447 q 247 277 247 334 m 612 780 q 564 900 612 855 q 453 945 516 945 q 353 906 391 945 q 316 798 316 867 q 361 683 316 749 q 464 563 398 630 q 580 670 542 607 q 612 780 612 723 "},"I":{"x_min":66,"x_max":544,"ha":611,"o":"m 384 569 l 384 483 q 385 197 384 333 q 390 42 386 62 q 445 33 400 39 q 537 23 489 27 l 544 -6 q 446 -1 518 -3 q 282 0 373 0 q 195 -1 254 0 q 66 -5 135 -2 l 71 24 q 136 30 92 24 q 219 43 181 36 q 224 286 223 83 q 226 495 226 489 l 226 577 l 226 603 l 226 639 l 226 677 l 226 713 l 226 746 l 226 775 l 226 800 l 226 822 l 226 840 l 226 855 q 219 929 226 911 q 160 937 212 930 q 73 948 109 943 l 66 978 q 156 973 88 975 q 329 972 224 972 q 456 973 391 972 q 543 977 521 975 l 536 948 l 390 929 q 385 817 386 911 q 384 569 384 724 "},"Ð":{"x_min":78,"x_max":1208.546875,"ha":1257,"o":"m 1075 232 l 1075 187 q 1075 101 1075 161 q 1075 23 1075 41 q 905 -8 1015 5 q 720 -22 795 -22 q 547 -10 626 -22 q 353 44 432 5 q 150 220 222 109 q 78 462 78 330 q 141 713 78 599 q 297 881 198 814 q 488 968 387 942 q 705 994 589 994 q 885 983 790 994 q 1016 959 980 973 l 1041 1088 l 1073 1095 q 1061 910 1068 1059 q 1054 666 1054 760 l 1022 682 q 1018 736 1022 710 q 1006 810 1015 763 q 898 893 963 861 q 645 945 794 945 q 355 829 467 945 q 243 544 243 714 q 376 201 243 358 q 736 28 523 28 q 825 34 780 28 q 912 64 871 41 q 917 201 917 96 l 917 275 l 917 291 q 911 386 917 356 q 832 392 868 388 q 771 401 797 395 l 762 430 l 990 426 l 1018 426 l 1046 426 l 1072 426 l 1096 426 l 1115 426 l 1132 426 q 1208 430 1197 426 l 1201 401 q 1134 394 1165 397 q 1080 386 1102 391 q 1076 320 1077 372 q 1075 232 1075 269 m 812 1256 l 836 1233 q 736 1134 796 1168 q 628 1107 686 1107 q 503 1150 557 1107 q 437 1233 459 1184 l 464 1256 q 532 1208 486 1228 q 639 1189 579 1189 q 753 1212 701 1189 q 812 1256 793 1230 "},"G":{"x_min":78,"x_max":1208.546875,"ha":1257,"o":"m 1075 232 l 1075 187 q 1075 101 1075 161 q 1075 23 1075 41 q 905 -8 1015 5 q 720 -22 795 -22 q 547 -10 626 -22 q 353 44 432 5 q 150 220 222 109 q 78 462 78 330 q 141 713 78 599 q 297 881 198 814 q 488 968 387 942 q 705 994 589 994 q 885 983 790 994 q 1016 959 980 973 l 1041 1089 l 1073 1096 q 1061 910 1068 1059 q 1054 667 1054 761 l 1022 683 q 1018 737 1022 711 q 1006 810 1015 763 q 898 893 963 862 q 645 945 794 945 q 355 829 467 945 q 243 544 243 714 q 376 201 243 358 q 736 28 523 28 q 825 34 780 28 q 912 64 871 41 q 917 201 917 96 l 917 275 l 917 291 q 911 386 917 356 q 832 392 868 388 q 771 401 797 395 l 762 430 l 990 427 l 1018 427 l 1046 427 l 1072 427 l 1096 427 l 1115 427 l 1132 427 q 1208 430 1197 427 l 1201 401 q 1134 394 1165 397 q 1080 386 1102 391 q 1076 320 1077 372 q 1075 232 1075 269 "},"`":{"x_min":388.890625,"x_max":718.0625,"ha":1274,"o":"m 388 1179 l 443 1286 q 592 1188 475 1264 q 718 1111 709 1112 l 701 1066 q 548 1127 668 1082 q 388 1179 408 1180 "},"r":{"x_min":65,"x_max":1064,"ha":1039,"o":"m 225 501 l 225 586 l 225 614 l 225 651 l 225 690 l 225 726 l 225 759 l 225 788 l 225 813 l 225 834 l 225 851 q 218 928 225 917 q 148 937 201 932 q 69 945 95 942 l 65 974 l 365 976 q 602 969 515 976 q 756 937 690 963 q 844 875 813 914 q 876 778 876 835 q 819 637 876 712 q 680 516 762 562 q 753 393 690 494 q 902 169 833 268 q 1064 -34 998 35 l 1002 -44 q 839 97 958 -24 q 629 322 743 194 q 514 455 535 429 l 381 447 l 381 411 q 383 236 381 343 q 388 43 385 130 q 449 32 401 38 q 533 23 497 26 l 538 -5 q 430 -2 524 -5 q 299 0 335 0 q 169 -1 244 0 q 65 -5 95 -2 l 70 24 q 140 30 91 24 q 218 43 188 36 q 223 281 222 71 q 225 501 225 491 m 381 533 l 381 490 q 467 495 429 490 q 550 516 505 500 q 673 613 630 547 q 708 740 708 668 q 638 872 708 819 q 388 937 552 937 q 384 716 388 891 q 381 533 381 541 "},"":{"x_min":78,"x_max":1208.546875,"ha":1257,"o":"m 1075 232 l 1075 187 q 1075 101 1075 161 q 1075 23 1075 41 q 905 -8 1015 5 q 720 -22 795 -22 q 547 -10 626 -22 q 353 44 432 5 q 150 220 222 109 q 78 462 78 330 q 141 713 78 599 q 297 881 198 814 q 488 968 387 942 q 705 994 589 994 q 885 983 790 994 q 1016 959 980 973 l 1041 1088 l 1073 1095 q 1061 910 1068 1059 q 1054 666 1054 760 l 1022 682 q 1018 736 1022 710 q 1006 810 1015 763 q 898 893 963 861 q 645 945 794 945 q 355 829 467 945 q 243 544 243 714 q 376 201 243 358 q 736 28 523 28 q 825 34 780 28 q 912 64 871 41 q 917 201 917 96 l 917 275 l 917 291 q 911 386 917 356 q 832 392 868 388 q 771 401 797 395 l 762 430 l 990 426 l 1018 426 l 1046 426 l 1072 426 l 1096 426 l 1115 426 l 1132 426 q 1208 430 1197 426 l 1201 401 q 1134 394 1165 397 q 1080 386 1102 391 q 1076 320 1077 372 q 1075 232 1075 269 m 812 1256 l 836 1233 q 736 1134 796 1168 q 628 1107 686 1107 q 503 1150 557 1107 q 437 1233 459 1184 l 464 1256 q 532 1208 486 1228 q 639 1189 579 1189 q 753 1212 701 1189 q 812 1256 793 1230 "},"¿":{"x_min":107,"x_max":718.125,"ha":847,"o":"m 459 740 l 518 754 q 530 644 518 708 q 551 534 550 545 q 491 508 520 520 q 390 444 445 486 q 295 326 320 391 q 279 220 279 283 q 322 93 279 150 q 462 25 373 25 q 588 58 534 25 q 655 124 630 84 q 686 255 670 163 l 718 265 q 699 51 706 178 q 693 -156 693 -75 l 661 -144 q 654 6 661 -62 q 563 -14 617 -6 q 454 -22 509 -22 q 187 37 279 -22 q 107 176 107 90 q 163 331 107 258 q 273 434 200 379 q 326 469 294 450 q 409 518 368 493 q 439 639 420 544 q 459 740 458 734 m 393 975 l 554 994 l 556 860 l 401 838 l 393 975 "},"ý":{"x_min":66,"x_max":544,"ha":611,"o":"m 384 569 l 384 483 q 385 197 384 333 q 390 42 386 62 q 445 33 400 39 q 537 23 489 27 l 544 -6 q 446 -1 518 -3 q 282 0 373 0 q 195 -1 254 0 q 66 -5 135 -2 l 71 24 q 136 30 92 24 q 219 43 181 36 q 224 286 223 83 q 226 495 226 489 l 226 577 l 226 603 l 226 639 l 226 677 l 226 713 l 226 746 l 226 775 l 226 800 l 226 822 l 226 840 l 226 855 q 219 929 226 911 q 160 937 212 930 q 73 948 109 943 l 66 978 q 156 973 88 975 q 329 972 224 972 q 456 973 391 972 q 543 977 521 975 l 536 948 l 390 929 q 385 817 386 911 q 384 569 384 724 "},"x":{"x_min":-30,"x_max":1001,"ha":985,"o":"m 1001 -50 l 942 -64 q 746 119 857 0 q 572 319 664 208 q 464 453 518 386 q 342 273 432 418 q 208 43 246 122 q 284 29 234 37 q 324 23 303 26 l 328 -5 q 243 -3 317 -5 q 121 0 168 -1 q 45 -1 81 0 q -30 -5 8 -2 l -20 23 q 31 31 15 29 q 67 43 47 34 q 175 162 92 58 q 328 359 251 257 q 431 497 379 427 q 317 650 412 520 q 194 815 207 798 q 101 929 135 894 q 54 940 83 934 q 11 948 25 946 l 7 978 q 219 972 40 972 q 337 974 274 972 q 440 977 401 976 l 432 948 q 381 943 406 945 q 314 929 357 940 q 417 770 326 904 q 531 611 507 637 q 639 762 578 673 q 743 929 718 879 q 691 941 732 933 q 645 948 649 948 l 639 978 q 820 972 703 972 q 887 973 850 972 q 964 977 923 975 l 962 948 l 875 929 q 725 766 859 923 q 562 568 630 654 q 688 388 584 537 q 859 144 773 266 q 1001 -50 945 22 "},"è":{"x_min":66,"x_max":789.609375,"ha":885,"o":"m 226 476 l 226 540 q 223 766 226 634 q 216 929 220 897 q 172 935 209 930 q 71 948 135 940 l 66 977 l 191 972 l 313 972 l 342 972 l 384 972 q 606 974 516 972 q 721 981 696 976 l 732 1047 l 764 1053 q 748 913 759 1027 q 737 764 737 799 l 706 774 l 706 874 q 581 917 689 901 q 393 933 472 933 q 388 769 392 926 q 384 563 384 612 l 384 536 q 564 541 485 536 q 671 558 644 547 q 685 617 681 586 l 715 620 l 678 361 l 652 372 l 654 465 q 552 488 624 480 q 384 496 479 496 l 384 468 q 386 224 384 375 q 393 40 389 74 q 595 50 509 40 q 727 87 681 60 q 741 140 734 106 q 757 209 749 173 l 789 218 q 761 60 779 177 q 744 -102 744 -56 l 715 -96 l 715 -12 q 519 -4 692 -8 q 277 0 345 0 l 66 -5 l 72 24 q 141 30 95 24 q 216 43 187 36 q 223 200 220 60 q 226 476 226 340 m 235 1179 l 290 1286 q 439 1188 322 1264 q 565 1111 556 1112 l 548 1066 q 395 1127 515 1082 q 235 1179 255 1180 "},"º":{"x_min":76,"x_max":604,"ha":681,"o":"m 331 531 q 231 543 273 531 q 137 600 177 560 q 89 673 103 633 q 76 752 76 712 q 148 919 76 851 q 352 994 227 994 q 449 982 409 994 q 528 939 488 971 q 583 870 563 912 q 604 786 604 829 q 526 602 604 673 q 331 531 449 531 m 350 574 q 447 622 409 574 q 485 740 485 670 q 440 889 485 826 q 326 952 396 952 q 236 911 275 952 q 189 778 189 863 q 237 639 189 704 q 350 574 286 574 "},"Ø":{"x_min":76,"x_max":1239,"ha":1315,"o":"m 180 -39 l 88 -22 q 151 33 121 7 q 232 112 198 76 q 120 257 159 176 q 76 469 76 350 q 237 834 76 684 q 685 994 409 994 q 853 980 785 994 q 1038 904 954 959 q 1094 958 1066 929 q 1139 1006 1122 987 l 1230 982 q 1158 923 1214 971 q 1093 865 1129 898 q 1201 717 1163 802 q 1239 537 1239 631 q 1069 132 1239 286 q 638 -22 900 -22 q 457 -3 536 -22 q 279 74 357 19 q 234 24 266 60 q 180 -39 202 -11 m 679 461 l 382 173 q 531 71 448 107 q 707 35 614 35 q 963 152 857 35 q 1070 436 1070 269 q 976 750 1070 611 q 788 569 909 687 q 679 461 713 495 m 940 798 q 634 941 810 941 q 363 842 474 941 q 236 527 236 728 q 266 356 236 438 q 344 218 293 284 q 488 358 381 252 q 631 497 576 443 q 940 798 791 647 "},"h":{"x_min":66,"x_max":1278.65625,"ha":1346,"o":"m 226 447 l 226 578 l 226 604 l 226 640 l 226 678 l 226 714 l 226 747 l 226 776 l 226 801 l 226 823 l 226 841 l 226 857 q 219 929 226 914 q 148 940 205 932 q 72 948 91 948 l 66 978 q 152 973 85 975 q 310 972 220 972 q 448 973 381 972 q 537 977 516 975 l 530 948 q 462 942 499 948 q 395 929 425 936 q 387 778 390 901 q 384 608 384 655 l 384 540 l 698 538 l 742 538 l 781 538 l 813 538 l 840 538 l 862 538 l 880 538 q 926 539 905 538 q 961 544 948 540 l 961 608 l 961 651 l 961 693 q 960 823 961 747 q 952 929 959 898 q 886 941 935 933 q 814 948 837 948 l 807 978 q 893 973 827 975 q 1046 972 959 972 q 1187 973 1121 972 q 1278 977 1253 975 l 1270 948 l 1128 929 q 1121 767 1124 913 q 1119 578 1119 621 l 1119 480 q 1121 182 1119 282 q 1131 43 1123 82 q 1201 32 1146 40 q 1271 24 1256 24 l 1278 -6 q 1189 -1 1257 -3 q 1045 0 1121 0 l 808 -5 l 814 23 q 878 29 834 23 q 952 42 923 35 q 959 232 958 73 q 961 413 961 391 l 961 494 q 654 480 905 494 q 384 462 403 466 l 384 413 q 386 188 384 285 q 395 42 389 91 q 464 30 418 37 q 530 23 510 23 l 537 -6 q 456 -2 528 -4 q 310 0 384 0 q 177 -2 270 0 q 66 -5 84 -5 l 74 23 q 143 29 100 23 q 219 43 185 36 q 223 227 223 87 q 226 447 224 368 "},".":{"x_min":138.953125,"x_max":307.171875,"ha":444,"o":"m 307 9 l 143 -20 l 138 128 l 300 157 l 307 9 "},"f":{"x_min":66,"x_max":799.328125,"ha":883,"o":"m 226 455 l 226 541 q 224 820 226 751 q 219 929 223 890 q 150 940 209 933 q 71 948 92 947 l 66 977 l 185 972 l 309 972 l 343 972 l 391 972 q 666 973 604 972 q 749 980 728 974 l 767 1079 l 799 1086 q 784 929 792 1045 q 776 743 776 813 l 744 755 q 742 811 744 781 q 737 864 741 841 q 588 912 705 895 q 395 930 471 930 q 386 781 389 913 q 384 558 384 649 l 384 528 q 551 532 457 528 q 677 547 645 537 q 685 580 678 551 q 696 629 692 609 l 725 633 q 710 479 717 570 q 704 323 704 387 l 675 332 q 674 370 675 351 q 668 450 673 389 q 552 475 645 466 q 384 485 459 485 l 384 443 q 386 203 384 336 q 395 42 389 70 q 478 30 424 37 q 547 23 507 27 l 553 -6 q 437 -3 522 -6 q 297 0 352 -1 q 194 -1 254 0 q 66 -6 134 -3 l 71 23 q 148 30 107 25 q 219 42 188 34 q 224 237 223 75 q 226 455 226 398 "},";":{"x_min":138.953125,"x_max":303,"ha":444,"o":"m 139 122 l 303 138 l 303 90 q 296 -72 303 -17 q 250 -243 284 -155 l 208 -249 q 232 -102 232 -161 q 212 -19 232 -54 l 143 -22 l 139 122 m 303 416 l 143 386 l 138 535 l 297 565 l 303 416 "},"“":{"x_min":84,"x_max":402,"ha":486,"o":"m 84 1044 l 121 1042 q 161 881 132 967 q 226 722 191 794 l 102 690 q 96 816 102 739 q 84 1044 84 991 m 260 1044 l 297 1042 q 338 881 308 967 q 402 722 367 794 l 278 690 q 272 816 278 739 q 260 1044 260 991 "},"6":{"x_min":87,"x_max":790,"ha":876,"o":"m 573 1038 l 648 1038 q 470 867 550 958 q 313 632 368 751 q 247 349 247 490 q 312 107 247 194 q 454 31 368 31 q 584 85 536 31 q 632 244 632 140 q 559 449 632 373 q 372 525 486 525 l 391 557 q 470 563 424 563 q 688 506 603 563 q 790 301 790 437 q 694 85 790 180 q 420 -22 587 -22 q 180 58 267 -22 q 87 305 87 143 q 222 702 87 504 q 573 1038 351 890 "},"A":{"x_min":-76,"x_max":1051,"ha":989,"o":"m 585 -6 l 592 23 q 683 31 672 30 q 733 42 717 39 q 659 257 695 149 q 587 449 602 422 q 420 442 537 449 q 266 430 304 436 q 236 328 261 417 q 169 42 180 127 q 217 33 180 40 q 289 23 254 27 l 294 -5 l 85 0 l -76 -6 l -71 23 q 47 42 -12 28 q 154 299 68 78 q 305 695 226 485 q 393 930 362 847 q 340 940 380 934 q 283 948 299 947 l 281 978 l 462 972 q 560 973 495 972 q 699 977 624 974 l 695 948 q 651 943 674 945 q 590 930 628 940 q 648 750 605 875 q 735 505 669 690 q 820 280 783 377 q 924 43 881 126 q 986 31 957 36 q 1046 23 1014 27 l 1051 -5 q 977 -2 1045 -4 q 820 0 909 0 q 702 -3 799 0 q 585 -6 605 -6 m 577 491 q 503 703 531 621 q 436 907 454 848 q 350 673 379 753 q 286 496 293 517 l 577 491 "},"‘":{"x_min":83.71875,"x_max":235,"ha":319,"o":"m 83 1044 l 121 1038 q 165 873 140 947 q 235 722 196 784 l 102 690 q 96 816 102 739 q 83 1044 83 991 "},"O":{"x_min":76,"x_max":1239,"ha":1315,"o":"m 638 -22 q 420 5 512 -22 q 209 133 298 43 q 105 288 135 208 q 76 469 76 368 q 237 834 76 684 q 685 994 409 994 q 894 969 805 994 q 1070 881 983 945 q 1194 730 1150 823 q 1239 537 1239 637 q 1069 132 1239 286 q 638 -22 899 -22 m 707 35 q 963 152 857 35 q 1070 435 1070 269 q 940 796 1070 652 q 634 941 811 941 q 363 842 475 941 q 236 527 236 728 q 369 187 236 334 q 707 35 508 35 "},"n":{"x_min":54.5625,"x_max":1211.5,"ha":1261,"o":"m 60 943 l 54 972 q 160 974 96 972 q 371 982 321 982 q 465 856 387 956 q 612 670 553 744 q 704 559 687 576 q 900 330 822 420 q 1005 215 983 233 q 999 714 1005 538 q 976 929 992 890 q 907 941 955 933 q 836 949 858 949 l 829 977 q 917 974 849 976 q 1036 972 985 972 q 1126 973 1069 972 q 1211 978 1183 975 l 1205 949 l 1100 929 q 1081 791 1089 894 q 1074 634 1074 687 q 1064 263 1074 555 q 1050 -69 1055 -29 q 921 74 1036 -55 q 717 310 818 192 q 592 454 649 390 l 262 850 l 262 815 q 271 359 262 644 q 293 43 280 75 q 367 31 305 38 q 444 23 380 30 l 449 -5 q 364 -2 430 -4 q 243 0 297 0 l 54 -5 l 58 23 q 123 31 94 27 q 174 43 151 36 q 194 287 185 69 q 205 644 199 386 q 212 926 212 902 q 142 937 185 931 q 60 943 100 943 "},"3":{"x_min":80,"x_max":712,"ha":807,"o":"m 146 752 l 113 744 q 125 861 117 770 q 143 1072 139 1023 l 172 1062 l 175 977 q 273 973 204 974 q 386 972 342 972 l 700 972 q 495 744 699 970 q 395 630 421 662 q 628 518 545 590 q 712 348 712 447 q 588 91 712 209 q 452 10 536 43 q 268 -22 368 -22 q 194 -19 224 -22 q 131 -6 164 -17 q 120 -31 123 -19 q 113 -67 118 -42 l 80 -72 q 95 72 89 -22 q 102 247 102 167 l 134 233 q 136 167 134 205 q 139 113 139 130 q 230 47 170 68 q 328 32 274 32 q 492 100 423 32 q 561 265 561 169 q 470 448 561 373 q 249 547 391 513 q 374 683 292 591 q 530 864 479 801 l 324 864 q 233 859 272 864 q 171 845 193 854 q 146 752 158 818 "},"9":{"x_min":79,"x_max":780,"ha":875,"o":"m 349 -58 l 273 -58 q 412 109 352 26 q 548 347 498 229 q 611 632 611 497 q 548 867 611 782 q 415 941 494 941 q 286 885 334 941 q 232 709 232 823 q 306 528 232 595 q 500 461 380 461 l 480 428 q 369 415 429 415 q 167 474 245 415 q 79 670 79 542 q 172 882 79 787 q 453 994 280 994 q 684 916 596 994 q 780 671 780 831 q 648 287 780 495 q 349 -58 532 104 "},"l":{"x_min":65.671875,"x_max":805.953125,"ha":818,"o":"m 225 509 l 225 590 l 225 626 l 225 665 l 225 703 l 225 738 l 225 768 l 225 794 l 225 817 l 225 836 l 225 851 q 218 929 225 911 q 145 940 201 932 q 69 948 89 948 l 65 978 q 169 975 86 978 q 305 972 253 973 q 459 973 383 972 q 561 978 535 975 l 554 948 l 389 929 q 384 739 385 898 q 383 573 383 580 l 383 523 q 384 217 383 367 q 389 44 385 66 q 591 64 506 44 q 722 114 676 85 q 751 197 736 148 q 772 273 767 254 l 805 279 q 764 65 780 169 q 732 -178 747 -39 l 700 -171 l 707 -8 q 554 -4 697 -6 q 301 0 411 -1 q 172 -2 262 0 q 65 -5 82 -5 l 71 24 q 146 30 94 24 q 218 43 197 36 q 223 295 222 85 q 225 509 225 506 "},"":{"x_min":66,"x_max":1427,"ha":1494,"o":"m 226 455 l 226 541 q 224 820 226 751 q 219 929 223 890 q 150 940 209 933 q 71 948 92 947 l 66 977 l 185 973 l 309 972 l 343 972 l 391 972 q 666 973 605 972 q 749 980 728 975 l 767 1079 l 799 1086 q 784 929 792 1045 q 776 744 776 813 l 744 755 q 742 811 744 782 q 737 865 741 841 q 588 913 705 895 q 395 930 471 930 q 386 782 389 913 q 384 558 384 650 l 384 528 q 551 532 457 528 q 677 547 645 537 q 685 580 678 551 q 696 629 692 609 l 725 633 q 710 479 717 570 q 704 323 704 387 l 675 332 q 674 370 675 351 q 668 450 673 389 q 552 475 645 466 q 384 485 459 485 l 384 443 q 386 203 384 336 q 395 42 389 70 q 478 30 424 37 q 548 23 507 27 l 553 -6 q 437 -3 523 -6 q 298 0 352 -1 q 194 -1 254 0 q 66 -6 134 -3 l 71 23 q 148 30 107 25 q 219 42 188 34 q 224 237 223 75 q 226 455 226 398 m 1267 569 l 1267 483 q 1268 197 1267 333 q 1273 43 1269 62 q 1328 34 1283 40 q 1420 23 1372 27 l 1427 -5 q 1328 -1 1401 -2 q 1165 0 1255 0 q 1077 -1 1137 0 q 948 -6 1018 -3 l 954 23 q 1019 29 975 23 q 1102 42 1064 35 q 1107 286 1106 83 q 1109 494 1109 489 l 1109 577 l 1109 603 l 1109 639 l 1109 677 l 1109 713 l 1109 746 l 1109 775 l 1109 800 l 1109 822 l 1109 840 l 1109 855 q 1102 929 1109 911 q 1043 936 1095 930 q 955 948 991 943 l 948 977 q 1038 973 970 975 q 1212 972 1106 972 q 1338 973 1273 972 q 1426 977 1404 975 l 1419 948 l 1273 929 q 1268 818 1269 911 q 1267 569 1267 725 "},"4":{"x_min":-19,"x_max":846.265625,"ha":883,"o":"m 498 292 l -19 292 q 186 521 54 371 q 433 803 228 569 q 646 1043 579 968 q 638 797 642 1012 q 634 443 634 582 l 634 381 q 721 387 681 381 q 781 404 761 393 q 794 459 785 415 q 814 547 804 502 l 846 550 q 831 427 837 488 q 820 188 820 318 l 788 194 q 785 246 788 221 q 778 285 782 271 q 716 290 756 289 q 634 292 677 292 l 634 246 q 635 120 634 170 q 640 42 636 70 l 790 23 l 797 -6 q 708 -2 788 -4 q 543 0 628 0 q 410 -2 518 0 q 283 -5 301 -5 l 289 23 l 491 43 q 495 122 493 75 q 498 241 498 169 l 498 292 m 498 381 l 498 797 q 286 558 371 655 q 134 381 196 455 l 498 381 "},"p":{"x_min":66,"x_max":845,"ha":888,"o":"m 382 580 l 382 522 q 383 237 382 404 q 388 42 384 70 q 455 35 395 41 q 564 23 514 28 l 571 -6 q 446 -3 552 -6 q 306 0 341 0 q 175 -3 268 0 q 66 -6 82 -6 l 71 23 q 117 27 96 25 q 219 42 173 34 q 223 258 223 84 q 226 529 224 432 l 226 585 l 226 610 l 226 644 l 226 682 l 226 718 l 226 749 l 226 779 l 226 802 l 226 823 l 226 841 q 219 929 226 909 q 150 942 198 935 q 70 948 103 948 l 66 977 l 374 979 q 572 969 488 979 q 708 938 657 959 q 806 872 772 912 q 845 767 845 826 q 820 647 845 699 q 749 547 796 594 q 588 447 689 487 q 457 411 517 419 l 461 445 q 623 543 566 472 q 680 718 680 613 q 650 831 680 781 q 567 906 621 880 q 488 929 535 922 q 388 937 440 937 q 383 750 384 909 q 382 580 382 590 "},"à":{"x_min":-76,"x_max":1051,"ha":989,"o":"m 585 -6 l 592 23 q 683 31 672 30 q 733 42 717 39 q 659 257 695 149 q 587 449 602 422 q 420 442 537 449 q 266 430 304 436 q 236 328 261 417 q 169 42 180 127 q 217 33 180 40 q 289 23 254 27 l 294 -5 l 85 0 l -76 -6 l -71 23 q 47 42 -12 28 q 154 299 68 78 q 305 695 226 485 q 393 930 362 847 q 340 940 380 934 q 283 948 299 947 l 281 978 l 462 972 q 560 973 495 972 q 699 977 624 974 l 695 948 q 651 943 674 945 q 590 930 628 940 q 648 750 605 875 q 735 505 669 690 q 820 280 783 377 q 924 43 881 126 q 986 31 957 36 q 1046 23 1014 27 l 1051 -5 q 977 -2 1045 -4 q 820 0 909 0 q 702 -3 799 0 q 585 -6 605 -6 m 577 491 q 503 703 531 621 q 436 907 454 848 q 350 673 379 753 q 286 496 293 517 l 577 491 m 246 1179 l 301 1286 q 450 1188 333 1264 q 576 1111 567 1112 l 559 1066 q 406 1127 526 1082 q 246 1179 266 1180 "},"Ü":{"x_min":61,"x_max":1137.390625,"ha":1190,"o":"m 182 398 l 182 615 q 180 814 182 734 q 175 929 179 894 q 131 937 169 930 q 65 948 92 944 l 61 978 q 152 975 72 978 q 295 972 233 972 q 409 975 331 972 q 501 978 487 978 l 494 948 q 423 940 469 946 q 349 929 377 934 q 344 779 345 904 q 343 610 343 654 l 343 425 q 423 118 343 218 q 617 31 494 31 q 817 97 747 31 q 891 233 872 149 q 911 457 911 318 l 911 585 l 911 610 l 911 644 l 911 682 l 911 718 l 911 749 l 911 779 l 911 804 l 911 825 l 911 843 q 904 929 911 911 q 827 941 883 933 q 752 948 772 948 l 742 978 q 836 975 754 978 q 967 972 917 972 q 1137 978 1090 972 l 1129 948 l 1031 929 q 1027 841 1029 914 q 1025 697 1025 768 l 1025 630 l 1025 459 q 997 244 1025 332 q 889 75 965 141 q 768 3 838 29 q 600 -22 698 -22 q 284 97 393 -22 q 182 398 182 208 m 387 1137 l 454 1246 l 561 1173 l 491 1066 l 387 1137 m 684 1139 l 752 1246 l 858 1173 l 787 1066 l 684 1139 "},"ó":{"x_min":76,"x_max":1239,"ha":1315,"o":"m 638 -22 q 420 5 512 -22 q 209 133 298 43 q 105 288 135 208 q 76 469 76 368 q 237 834 76 684 q 685 994 409 994 q 894 969 805 994 q 1070 881 983 945 q 1194 730 1150 823 q 1239 537 1239 637 q 1069 132 1239 286 q 638 -22 899 -22 m 707 35 q 963 152 857 35 q 1070 435 1070 269 q 940 796 1070 652 q 634 941 811 941 q 363 842 475 941 q 236 527 236 728 q 369 187 236 334 q 707 35 508 35 m 852 1286 l 905 1179 q 747 1129 883 1180 q 594 1066 630 1084 l 577 1111 q 702 1187 587 1112 q 852 1286 809 1257 "}}}
